<svg version="1.1" xmlns="http://www.w3.org/2000/svg" viewBox="0 0 233.26707851151866 149.79219513273233" width="233.26707851151866" height="149.79219513273233">
  <!-- svg-source:excalidraw -->
  
  <defs>
    <style class="style-fonts">
      @font-face {
        font-family: "Virgil";
        src: url("https://excalidraw.com/Virgil.woff2");
      }
      @font-face {
        font-family: "Cascadia";
        src: url("https://excalidraw.com/Cascadia.woff2");
      }
    </style>
  </defs>
  <rect x="0" y="0" width="233.26707851151866" height="149.79219513273233" fill="#ffffff"></rect><g stroke-opacity="0.7" fill-opacity="0.7" stroke-linecap="round" transform="translate(10 10) rotate(0 106.63353925575933 64.89609756636617)"><path d="M32 0 M32 0 C87.79 1.81, 147.09 -1.85, 181.27 0 M32 0 C89.37 -1.12, 148.12 -0.59, 181.27 0 M181.27 0 C201.83 0.78, 213 12.29, 213.27 32 M181.27 0 C202.46 -1.77, 211.95 12.77, 213.27 32 M213.27 32 C213.65 51.03, 212.3 66.3, 213.27 97.79 M213.27 32 C212.43 49.64, 212.21 67.07, 213.27 97.79 M213.27 97.79 C214.18 117.87, 202.13 130.74, 181.27 129.79 M213.27 97.79 C211.29 120.65, 201.09 128.9, 181.27 129.79 M181.27 129.79 C149.73 130.25, 113.14 132.6, 32 129.79 M181.27 129.79 C122.59 129.24, 66.41 129.96, 32 129.79 M32 129.79 C9.94 127.84, 1.97 117.25, 0 97.79 M32 129.79 C12.48 129, 0.97 120.18, 0 97.79 M0 97.79 C-1.15 79.93, 1.69 64.34, 0 32 M0 97.79 C-0.07 82.04, -0.52 66.79, 0 32 M0 32 C-1.99 9.25, 10.7 1.44, 32 0 M0 32 C-0.42 10.11, 10.29 -0.93, 32 0" stroke="#087f5b" stroke-width="1" fill="none"></path></g><g stroke-opacity="0.7" fill-opacity="0.7" stroke-linecap="round" transform="translate(69.14452357040489 32.54215008469737) rotate(0 53.53694348396755 30.418717888617948)"><path d="M15.21 0 M15.21 0 C37.58 -2.63, 61.41 1.34, 91.86 0 M15.21 0 C39.8 0.32, 63.1 1.07, 91.86 0 M91.86 0 C101.73 1.62, 106.95 3.53, 107.07 15.21 M91.86 0 C100.69 2.1, 106.38 5.33, 107.07 15.21 M107.07 15.21 C106.08 25.7, 106.56 36.64, 107.07 45.63 M107.07 15.21 C106.62 22.86, 107.47 31.29, 107.07 45.63 M107.07 45.63 C106.6 56.72, 100.28 62.16, 91.86 60.84 M107.07 45.63 C105.57 54.87, 100.27 62.41, 91.86 60.84 M91.86 60.84 C62.14 62.31, 36.34 62.36, 15.21 60.84 M91.86 60.84 C69.87 60.65, 45.88 59.47, 15.21 60.84 M15.21 60.84 C7.04 58.96, 1.58 55.08, 0 45.63 M15.21 60.84 C6.04 61.89, -0.75 54.63, 0 45.63 M0 45.63 C1.59 39.19, -1.17 28.26, 0 15.21 M0 45.63 C-0.74 38.03, -0.87 31.18, 0 15.21 M0 15.21 C0.04 6.51, 4.7 -0.49, 15.21 0 M0 15.21 C-0.38 4.14, 5.6 1.14, 15.21 0" stroke="#087f5b" stroke-width="1" fill="none"></path></g><g stroke-opacity="0.7" fill-opacity="0.7" stroke-linecap="round" transform="translate(19.674309674726373 19.047763465227717) rotate(0 11.522016212920391 13.092489703448848)"><path d="M5.76 0 M5.76 0 C8.24 -0.66, 9.34 0.4, 17.28 0 M5.76 0 C8.72 0.42, 11.8 -0.49, 17.28 0 M17.28 0 C19.98 1.83, 22.44 2.15, 23.04 5.76 M17.28 0 C23.08 0.36, 24.5 0.73, 23.04 5.76 M23.04 5.76 C22.63 9, 22.64 12.18, 23.04 20.42 M23.04 5.76 C22.94 9.47, 22.48 12.97, 23.04 20.42 M23.04 20.42 C21.73 23.49, 19.61 27.55, 17.28 26.18 M23.04 20.42 C24.74 26.55, 20.39 24.94, 17.28 26.18 M17.28 26.18 C12.81 25.32, 7.8 27.23, 5.76 26.18 M17.28 26.18 C14.16 25.53, 10.36 25.87, 5.76 26.18 M5.76 26.18 C2.76 27.1, -0.65 23.28, 0 20.42 M5.76 26.18 C1.19 24.48, -0.32 25.84, 0 20.42 M0 20.42 C-0.99 14.15, -0.8 7.83, 0 5.76 M0 20.42 C0.16 17.63, 0.01 13.6, 0 5.76 M0 5.76 C-0.33 1.11, 2.38 0.99, 5.76 0 M0 5.76 C1.88 1.54, 1.92 0.43, 5.76 0" stroke="#087f5b" stroke-width="1" fill="none"></path></g><g stroke-opacity="0.7" fill-opacity="0.7" stroke-linecap="round" transform="translate(17.023226298302234 50.04504602034092) rotate(0 15.294711787062454 39.970180136856584)"><path d="M7.65 0 M7.65 0 C12.38 0.76, 19.29 -0.52, 22.94 0 M7.65 0 C12.78 -0.71, 17.57 0.57, 22.94 0 M22.94 0 C27.44 0.23, 32.29 2.86, 30.59 7.65 M22.94 0 C29.49 -1.19, 29.18 1.9, 30.59 7.65 M30.59 7.65 C29.93 19.79, 29.01 34.42, 30.59 72.29 M30.59 7.65 C29.58 23.63, 29.78 37.9, 30.59 72.29 M30.59 72.29 C29.08 78.76, 29.51 81.92, 22.94 79.94 M30.59 72.29 C29.86 76.14, 30.01 81.95, 22.94 79.94 M22.94 79.94 C16.22 81.06, 11.37 79.25, 7.65 79.94 M22.94 79.94 C20.45 79.53, 17.07 80.15, 7.65 79.94 M7.65 79.94 C1.89 78.95, -0.64 75.91, 0 72.29 M7.65 79.94 C2.23 81.51, 1.98 75.78, 0 72.29 M0 72.29 C-0.75 54.59, -0.99 38.39, 0 7.65 M0 72.29 C-0.2 57.24, -0.18 42.28, 0 7.65 M0 7.65 C0.46 3.54, 4.18 -0.33, 7.65 0 M0 7.65 C0 2.98, 1.92 -1.47, 7.65 0" stroke="#087f5b" stroke-width="1" fill="none"></path></g><g stroke-opacity="0.6" fill-opacity="0.6" transform="translate(23.34504050362125 26.160508622629322) rotate(0 8.341666221618652 3.6905792996279843)"><text x="0" y="0" font-family="Virgil, Segoe UI Emoji" font-size="5.9049268794047896px" fill="#087f5b" text-anchor="start" style="white-space: pre;" direction="ltr" dominant-baseline="text-before-edge">Photo</text></g><g stroke-opacity="0.6" fill-opacity="0.6" transform="translate(22.727812750684507 57.386507678131125) rotate(0 7.941666603088379 3.4742563041866674)"><text x="0" y="0" font-family="Virgil, Segoe UI Emoji" font-size="5.558810086698673px" fill="#087f5b" text-anchor="start" style="white-space: pre;" direction="ltr" dominant-baseline="text-before-edge">About</text></g><g stroke-opacity="0.6" fill-opacity="0.6" transform="translate(24.475658788495366 69.62227710778086) rotate(0 6.958333492279053 2.1487146159745976)"><text x="0" y="0" font-family="Virgil, Segoe UI Emoji" font-size="3.437943385559337px" fill="#087f5b" text-anchor="start" style="white-space: pre;" direction="ltr" dominant-baseline="text-before-edge">My skills</text></g><g stroke-opacity="0.6" fill-opacity="0.6" transform="translate(22.92630513792642 78.79910418001862) rotate(0 9.591666221618652 2.7490000230189366)"><text x="0" y="0" font-family="Virgil, Segoe UI Emoji" font-size="4.398400036830319px" fill="#087f5b" text-anchor="start" style="white-space: pre;" direction="ltr" dominant-baseline="text-before-edge">My works</text></g><g stroke-opacity="0.6" fill-opacity="0.6" transform="translate(22.812785575856424 88.99557870472688) rotate(0 10.050000190734863 3.1683620684454468)"><text x="0" y="0" font-family="Virgil, Segoe UI Emoji" font-size="5.069379309512704px" fill="#087f5b" text-anchor="start" style="white-space: pre;" direction="ltr" dominant-baseline="text-before-edge">Contact</text></g><g stroke-opacity="0.6" fill-opacity="0.6" transform="translate(20.286098146208133 101.63920711536491) rotate(0 12.366666793823242 1.9444770801839582)"><text x="0" y="0" font-family="Virgil, Segoe UI Emoji" font-size="3.111163328294351px" fill="#087f5b" text-anchor="start" style="white-space: pre;" direction="ltr" dominant-baseline="text-before-edge">Survivor’s note </text></g><g stroke-opacity="0.6" fill-opacity="0.6" transform="translate(111.87167128749252 43.71497475164972) rotate(0 9.641666412353516 4.2272968955922465)"><text x="0" y="0" font-family="Virgil, Segoe UI Emoji" font-size="6.763675032947632px" fill="#087f5b" text-anchor="start" style="white-space: pre;" direction="ltr" dominant-baseline="text-before-edge">About</text></g><g stroke-opacity="0.6" fill-opacity="0.6" stroke-linecap="round" transform="translate(58.06173915264765 115.24260746302446) rotate(0 69.0538048832442 8.342931816748774)"><path d="M4.17 0 M4.17 0 C30.79 0.18, 57.89 -2.33, 133.94 0 M4.17 0 C33.48 -1.16, 61.13 -0.3, 133.94 0 M133.94 0 C138.58 -0.32, 138.77 2.71, 138.11 4.17 M133.94 0 C134.51 -0.45, 137.95 1.17, 138.11 4.17 M138.11 4.17 C138.77 5.63, 138.89 7.69, 138.11 12.51 M138.11 4.17 C137.99 6.92, 137.79 10, 138.11 12.51 M138.11 12.51 C138.08 13.71, 138.04 15.3, 133.94 16.69 M138.11 12.51 C136.42 13.54, 136.36 17.53, 133.94 16.69 M133.94 16.69 C91.17 16.4, 46.22 17.57, 4.17 16.69 M133.94 16.69 C101.72 15.74, 70.54 15.56, 4.17 16.69 M4.17 16.69 C2.65 18.03, -1.99 17.04, 0 12.51 M4.17 16.69 C2.72 16.09, 0.27 17.19, 0 12.51 M0 12.51 C0.13 10.82, 0.68 9.59, 0 4.17 M0 12.51 C0.18 10.05, -0.16 7.35, 0 4.17 M0 4.17 C1.04 0.62, 1.38 0.88, 4.17 0 M0 4.17 C-0.57 1.17, 3.35 -1.9, 4.17 0" stroke="#087f5b" stroke-width="1" fill="none"></path></g><g stroke-opacity="0.6" fill-opacity="0.6" transform="translate(108.37603564750259 118.32307459536253) rotate(0 10.983333587646484 4.373108972294574)"><text x="0" y="0" font-family="Virgil, Segoe UI Emoji" font-size="6.996974355671295px" fill="#087f5b" text-anchor="start" style="white-space: pre;" direction="ltr" dominant-baseline="text-before-edge">footer</text></g></svg>