<svg version="1.1" xmlns="http://www.w3.org/2000/svg" viewBox="0 0 350.727574243189 149.79219513273233" width="350.727574243189" height="149.79219513273233">
  <!-- svg-source:excalidraw -->
  
  <defs>
    <style class="style-fonts">
      @font-face {
        font-family: "Virgil";
        src: url("https://excalidraw.com/Virgil.woff2");
      }
      @font-face {
        font-family: "Cascadia";
        src: url("https://excalidraw.com/Cascadia.woff2");
      }
    </style>
  </defs>
  <rect x="0" y="0" width="350.727574243189" height="149.79219513273233" fill="#ffffff"></rect><g stroke-opacity="0.7" fill-opacity="0.7" stroke-linecap="round" transform="translate(10 10) rotate(0 106.63353925575933 64.89609756636617)"><path d="M32 0 M32 0 C82.29 -0.75, 130.46 0.97, 181.27 0 M32 0 C75.66 1.52, 118.53 0.72, 181.27 0 M181.27 0 C202.92 0.94, 214.33 11.09, 213.27 32 M181.27 0 C203.62 1.91, 211.5 12.86, 213.27 32 M213.27 32 C214.66 52.29, 213.08 67.64, 213.27 97.79 M213.27 32 C212.07 52.06, 213.66 73.42, 213.27 97.79 M213.27 97.79 C213.24 119.92, 201.94 131.67, 181.27 129.79 M213.27 97.79 C214.9 119.65, 204.65 129.94, 181.27 129.79 M181.27 129.79 C139.7 128.26, 97.37 131.15, 32 129.79 M181.27 129.79 C138.92 129.5, 97.68 127.88, 32 129.79 M32 129.79 C11.37 128.64, 1.04 121, 0 97.79 M32 129.79 C10.13 129.14, -0.61 119.78, 0 97.79 M0 97.79 C0.25 77.3, -0.53 57.04, 0 32 M0 97.79 C0.98 78.88, 1.32 59, 0 32 M0 32 C-0.99 11.58, 9.11 0.18, 32 0 M0 32 C-1.29 9.12, 8.61 2.26, 32 0" stroke="#087f5b" stroke-width="1" fill="none"></path></g><g stroke-opacity="0.7" fill-opacity="0.7" stroke-linecap="round" transform="translate(63.60238094389115 30.590116631833098) rotate(0 57.079236778012785 32.43138453296183)"><path d="M16.22 0 M16.22 0 C38.98 1, 59.91 0.69, 97.94 0 M16.22 0 C38.26 -0.63, 59.32 -0.32, 97.94 0 M97.94 0 C109.82 0.42, 115.04 7.07, 114.16 16.22 M97.94 0 C106.99 2.2, 113.66 6.47, 114.16 16.22 M114.16 16.22 C113.85 23.16, 114.53 30.85, 114.16 48.65 M114.16 16.22 C114.71 23.57, 113.89 29.95, 114.16 48.65 M114.16 48.65 C113.49 61.33, 110.17 65.32, 97.94 64.86 M114.16 48.65 C116.2 59.6, 108.35 65.27, 97.94 64.86 M97.94 64.86 C74.51 65.77, 49.89 65.54, 16.22 64.86 M97.94 64.86 C80.38 64.74, 61.48 64.96, 16.22 64.86 M16.22 64.86 C6.45 66.74, -0.46 58.89, 0 48.65 M16.22 64.86 C4.8 65.52, 0.51 58.97, 0 48.65 M0 48.65 C-0.69 40.19, 0.01 27.09, 0 16.22 M0 48.65 C0.71 41.84, -0.67 33.78, 0 16.22 M0 16.22 C-1.56 5.59, 4.28 -1.34, 16.22 0 M0 16.22 C-2.06 7.67, 4.56 -1.89, 16.22 0" stroke="#d9480f" stroke-width="1" fill="none"></path></g><g stroke-opacity="0.7" fill-opacity="0.7" stroke-linecap="round" transform="translate(19.491693775848944 18.986891498936075) rotate(0 12.486171119902451 13.242569268827424)"><path d="M6.24 0 M6.24 0 C9.84 0.83, 15.57 0.7, 18.73 0 M6.24 0 C10.52 0.07, 14.41 0.46, 18.73 0 M18.73 0 C21.36 1.91, 24.54 3.01, 24.97 6.24 M18.73 0 C21.63 1.25, 27.24 1.52, 24.97 6.24 M24.97 6.24 C23.66 8.65, 24.56 14.36, 24.97 20.24 M24.97 6.24 C24.74 12.06, 25.47 16.72, 24.97 20.24 M24.97 20.24 C26.75 24.53, 22.54 26.84, 18.73 26.49 M24.97 20.24 C24.79 25.08, 21.27 26.97, 18.73 26.49 M18.73 26.49 C13.12 26.4, 10.42 27.62, 6.24 26.49 M18.73 26.49 C16.3 27, 13.08 26.24, 6.24 26.49 M6.24 26.49 C1.55 27.06, 0.45 23.98, 0 20.24 M6.24 26.49 C2.36 26.61, 0.83 23.63, 0 20.24 M0 20.24 C-0.89 15.65, 1.27 10.76, 0 6.24 M0 20.24 C-0.48 14.91, -0.32 8.98, 0 6.24 M0 6.24 C-1.79 4.05, 1.34 -1.64, 6.24 0 M0 6.24 C-0.37 0.74, 4.14 1.44, 6.24 0" stroke="#087f5b" stroke-width="1" fill="none"></path></g><g stroke-opacity="0.7" fill-opacity="0.7" stroke-linecap="round" transform="translate(17.023226298302234 50.04504602034103) rotate(0 15.294711787062454 39.970180136856584)"><path d="M7.65 0 M7.65 0 C13.86 0.77, 17.37 0.14, 22.94 0 M7.65 0 C13.29 0.6, 17.67 0.7, 22.94 0 M22.94 0 C27.61 0.93, 29.49 3.64, 30.59 7.65 M22.94 0 C30.31 -0.56, 29.43 2.77, 30.59 7.65 M30.59 7.65 C29.37 24.59, 31.35 38.29, 30.59 72.29 M30.59 7.65 C31.09 29.83, 31.26 51.63, 30.59 72.29 M30.59 72.29 C30.24 77.75, 27.88 80.53, 22.94 79.94 M30.59 72.29 C28.97 77.87, 29.74 79.55, 22.94 79.94 M22.94 79.94 C18.66 81.22, 10.63 80.46, 7.65 79.94 M22.94 79.94 C19.06 79.87, 15.33 80.3, 7.65 79.94 M7.65 79.94 C3 79.51, 0.24 77.5, 0 72.29 M7.65 79.94 C3.38 79.17, 1.91 77.42, 0 72.29 M0 72.29 C2.23 58.9, 2.12 40.96, 0 7.65 M0 72.29 C-0.06 49.28, -0.39 28.59, 0 7.65 M0 7.65 C-0.74 0.91, 2.23 -1.17, 7.65 0 M0 7.65 C2.06 3.99, 0.83 -1.75, 7.65 0" stroke="#087f5b" stroke-width="1" fill="none"></path></g><g stroke-opacity="0.6" fill-opacity="0.6" transform="translate(23.34504050362102 26.16050862262955) rotate(0 8.341666221618652 3.6905792996279843)"><text x="0" y="0" font-family="Virgil, Segoe UI Emoji" font-size="5.9049268794047896px" fill="#087f5b" text-anchor="start" style="white-space: pre;" direction="ltr" dominant-baseline="text-before-edge">Photo</text></g><g stroke-opacity="0.6" fill-opacity="0.6" transform="translate(22.72781275068428 57.38650767813124) rotate(0 7.941666603088379 3.4742563041867243)"><text x="0" y="0" font-family="Virgil, Segoe UI Emoji" font-size="5.558810086698673px" fill="#087f5b" text-anchor="start" style="white-space: pre;" direction="ltr" dominant-baseline="text-before-edge">About</text></g><g stroke-opacity="0.6" fill-opacity="0.6" transform="translate(24.475658788495366 69.62227710778097) rotate(0 6.958333492279053 2.1487146159745407)"><text x="0" y="0" font-family="Virgil, Segoe UI Emoji" font-size="3.437943385559337px" fill="#087f5b" text-anchor="start" style="white-space: pre;" direction="ltr" dominant-baseline="text-before-edge">My skills</text></g><g stroke-opacity="0.6" fill-opacity="0.6" transform="translate(22.926305137926192 78.79910418001873) rotate(0 9.591666221618652 2.7490000230189935)"><text x="0" y="0" font-family="Virgil, Segoe UI Emoji" font-size="4.398400036830319px" fill="#087f5b" text-anchor="start" style="white-space: pre;" direction="ltr" dominant-baseline="text-before-edge">My works</text></g><g stroke-opacity="0.6" fill-opacity="0.6" transform="translate(22.812785575856196 88.995578704727) rotate(0 10.050000190734863 3.16836206844539)"><text x="0" y="0" font-family="Virgil, Segoe UI Emoji" font-size="5.069379309512704px" fill="#087f5b" text-anchor="start" style="white-space: pre;" direction="ltr" dominant-baseline="text-before-edge">Contact</text></g><g stroke-opacity="0.6" fill-opacity="0.6" transform="translate(20.286098146208133 101.63920711536548) rotate(0 12.366666793823242 1.944477080184015)"><text x="0" y="0" font-family="Virgil, Segoe UI Emoji" font-size="3.111163328294351px" fill="#d9480f" text-anchor="start" style="white-space: pre;" direction="ltr" dominant-baseline="text-before-edge">Survivor’s note </text></g><g stroke-opacity="0.6" fill-opacity="0.6" transform="translate(105.28223719017467 36.07613839976875) rotate(0 16 2.5224833561190962)"><text x="0" y="0" font-family="Virgil, Segoe UI Emoji" font-size="4.035973369790538px" fill="#087f5b" text-anchor="start" style="white-space: pre;" direction="ltr" dominant-baseline="text-before-edge">Survivor’s note </text></g><g stroke-opacity="0.6" fill-opacity="0.6" stroke-linecap="round" transform="translate(57.56172584561705 113.28823432670583) rotate(0 69.05380488324414 8.342931816748774)"><path d="M4.17 0 M4.17 0 C50.1 -1.63, 93.95 1.08, 133.94 0 M4.17 0 C53.52 -0.31, 104.29 0.78, 133.94 0 M133.94 0 C136.71 0.69, 139.63 1.16, 138.11 4.17 M133.94 0 C135.17 -1.38, 138.01 0.35, 138.11 4.17 M138.11 4.17 C138.33 5.93, 138.72 9.28, 138.11 12.51 M138.11 4.17 C137.95 6.7, 138.33 8.31, 138.11 12.51 M138.11 12.51 C139.1 13.6, 137.81 16.46, 133.94 16.69 M138.11 12.51 C135.96 16.5, 136.82 18.76, 133.94 16.69 M133.94 16.69 C105.9 16.84, 79.09 17.11, 4.17 16.69 M133.94 16.69 C102.56 16.95, 71.85 16.86, 4.17 16.69 M4.17 16.69 C1.35 17.88, -1.65 15.43, 0 12.51 M4.17 16.69 C2.16 15.58, 1.7 13.9, 0 12.51 M0 12.51 C-0.75 9.44, -0.27 8.09, 0 4.17 M0 12.51 C0.11 10.01, -0.3 7.4, 0 4.17 M0 4.17 C0.34 2.82, 0.19 -1.79, 4.17 0 M0 4.17 C0.23 0.24, 2.33 0.91, 4.17 0" stroke="#087f5b" stroke-width="1" fill="none"></path></g><g stroke-opacity="0.6" fill-opacity="0.6" transform="translate(107.87602234047199 116.3687014590439) rotate(0 10.983333587646484 4.373108972294517)"><text x="0" y="0" font-family="Virgil, Segoe UI Emoji" font-size="6.996974355671295px" fill="#087f5b" text-anchor="start" style="white-space: pre;" direction="ltr" dominant-baseline="text-before-edge">footer</text></g><g stroke-opacity="0.6" fill-opacity="0.6" stroke-linecap="round" transform="translate(245.7586912183084 18.134097741878122) rotate(0 17.885059583772545 4.627025756074204)"><path d="M0.62 0.54 C0.62 0.54, 0.62 0.54, 0.62 0.54 M0.62 0.54 C0.62 0.54, 0.62 0.54, 0.62 0.54 M0.35 6.93 C1.93 5.33, 3.29 3.74, 4.95 1.65 M0.35 6.93 C1.57 5.18, 3.51 3.74, 4.95 1.65 M3.37 9.56 C5.8 8.7, 7.54 6.8, 9.93 2.01 M3.37 9.56 C5.68 6.95, 8 4.35, 9.93 2.01 M8.36 9.92 C10.9 6.9, 12.41 4.15, 14.92 2.37 M8.36 9.92 C10.04 8.18, 11.88 5.36, 14.92 2.37 M13.35 10.28 C15.59 7.66, 17.74 5.9, 20.56 1.98 M13.35 10.28 C15.52 7.39, 19.15 4.15, 20.56 1.98 M18.99 9.88 C22.32 7.13, 23.06 5.24, 25.55 2.34 M18.99 9.88 C20.79 7.54, 23.3 5.53, 25.55 2.34 M23.98 10.24 C26.14 8.34, 27.96 6.57, 31.19 1.94 M23.98 10.24 C25.87 7.68, 28.11 5.76, 31.19 1.94 M29.62 9.85 C31.28 8.26, 32.88 6.92, 36.18 2.3 M29.62 9.85 C32.32 7.45, 34.76 4.08, 36.18 2.3" stroke="#12b886" stroke-width="0.5" fill="none"></path><path d="M2.31 0 M2.31 0 C15.91 -0.65, 24.81 1.19, 33.46 0 M2.31 0 C11.6 -0.36, 21.34 0.54, 33.46 0 M33.46 0 C36.04 1.78, 34.72 2.44, 35.77 2.31 M33.46 0 C35.23 -0.19, 36.52 -0.52, 35.77 2.31 M35.77 2.31 C35.7 3.74, 35.9 4.06, 35.77 6.94 M35.77 2.31 C35.6 4.07, 35.65 5.59, 35.77 6.94 M35.77 6.94 C37.22 6.95, 34.61 9.84, 33.46 9.25 M35.77 6.94 C34.02 6.76, 34.75 9.44, 33.46 9.25 M33.46 9.25 C23.18 8.11, 15.81 10.11, 2.31 9.25 M33.46 9.25 C24.82 8.18, 15.69 9.63, 2.31 9.25 M2.31 9.25 C1.21 10.52, -0.89 7.04, 0 6.94 M2.31 9.25 C-0.78 8.64, 1.74 8.92, 0 6.94 M0 6.94 C-0.2 5.06, 0.34 3.09, 0 2.31 M0 6.94 C-0.15 5.13, -0.03 3.52, 0 2.31 M0 2.31 C0.48 2.3, 1.46 -0.11, 2.31 0 M0 2.31 C0.39 -1.17, 2.46 0.89, 2.31 0" stroke="#087f5b" stroke-width="1" fill="none"></path></g><g stroke-opacity="0.6" fill-opacity="0.6" transform="translate(297.1275444420495 16.95403615206442) rotate(0 20.308332443237305 4.901234737421419)"><text x="0" y="0" font-family="Virgil, Segoe UI Emoji" font-size="7.841975579874279px" fill="#087f5b" text-anchor="start" style="white-space: pre;" direction="ltr" dominant-baseline="text-before-edge">Must have</text></g><g stroke-opacity="0.6" fill-opacity="0.6" stroke-linecap="round" transform="translate(248.75364879338633 37.762403547688336) rotate(0 17.335625050058752 4.472205244970837)"><path d="M0.6 0.52 C0.6 0.52, 0.6 0.52, 0.6 0.52 M0.6 0.52 C0.6 0.52, 0.6 0.52, 0.6 0.52 M0.33 6.92 C1.13 4.8, 2.97 3.97, 4.27 2.39 M0.33 6.92 C1.86 5.58, 3.42 4.04, 4.27 2.39 M3.35 9.54 C6.28 6.63, 8.63 3.66, 9.91 1.99 M3.35 9.54 C5.74 7.05, 7.63 4.05, 9.91 1.99 M8.34 9.9 C9.79 7.22, 12.92 4.93, 14.9 2.35 M8.34 9.9 C10.4 7.89, 11.9 5.82, 14.9 2.35 M13.98 9.5 C15.63 5.87, 18.99 4.78, 20.54 1.96 M13.98 9.5 C16.01 7.49, 18.3 4.16, 20.54 1.96 M18.97 9.87 C20.46 6.6, 23.76 4.72, 25.53 2.32 M18.97 9.87 C21.48 7.26, 23.87 4.47, 25.53 2.32 M24.61 9.47 C28.75 5.89, 30.15 3.05, 32.49 0.41 M24.61 9.47 C26.87 6.82, 29.47 4.12, 32.49 0.41 M29.6 9.83 C32.68 7.44, 35.5 4.56, 36.16 2.28 M29.6 9.83 C31.24 8.29, 32.71 5.59, 36.16 2.28" stroke="#4c6ef5" stroke-width="0.5" fill="none"></path><path d="M2.24 0 M2.24 0 C12.69 -1.13, 23.18 -1.26, 32.44 0 M2.24 0 C12.18 0.57, 23.28 -0.35, 32.44 0 M32.44 0 C34.58 -1.12, 32.89 1.64, 34.67 2.24 M32.44 0 C32.49 -0.45, 36.89 1.3, 34.67 2.24 M34.67 2.24 C34.25 3.09, 35.03 4.33, 34.67 6.71 M34.67 2.24 C34.66 3.86, 34.53 5.18, 34.67 6.71 M34.67 6.71 C34.45 8.36, 33.83 7.31, 32.44 8.94 M34.67 6.71 C34.44 6.95, 32.65 9.78, 32.44 8.94 M32.44 8.94 C20.22 10.22, 10.05 10.55, 2.24 8.94 M32.44 8.94 C20.96 8.42, 9.7 8.87, 2.24 8.94 M2.24 8.94 C2.26 9.32, 1.43 8.12, 0 6.71 M2.24 8.94 C2.3 7.93, -0.81 9.88, 0 6.71 M0 6.71 C-0.28 5.47, -0.36 4.77, 0 2.24 M0 6.71 C0.07 5.63, 0.03 4.39, 0 2.24 M0 2.24 C1.47 1.52, -1.18 -1.12, 2.24 0 M0 2.24 C2.23 0.69, 1.39 -0.9, 2.24 0" stroke="#364fc7" stroke-width="1" fill="none"></path></g><g stroke-opacity="0.6" fill-opacity="0.6" transform="translate(297.260907067896 37.9021217848308) rotate(0 21.733333587646484 4.750667298159442)"><text x="0" y="0" font-family="Virgil, Segoe UI Emoji" font-size="7.601067677055071px" fill="#364fc7" text-anchor="start" style="white-space: pre;" direction="ltr" dominant-baseline="text-before-edge">should have</text></g><g stroke-opacity="0.6" fill-opacity="0.6" transform="translate(298.82013840632646 57.44849346147248) rotate(0 20.308332443237305 4.894766234232748)"><text x="0" y="0" font-family="Virgil, Segoe UI Emoji" font-size="7.831625974772397px" fill="#c92a2a" text-anchor="start" style="white-space: pre;" direction="ltr" dominant-baseline="text-before-edge">could have</text></g><g stroke-opacity="0.6" fill-opacity="0.6" stroke-linecap="round" transform="translate(249.01925310019453 57.44849346147248) rotate(0 17.070922025039977 4.749053495687804)"><path d="M-0.14 2.53 C-0.14 2.53, -0.14 2.53, -0.14 2.53 M-0.14 2.53 C-0.14 2.53, -0.14 2.53, -0.14 2.53 M0.91 7.42 C2.61 6.82, 3.83 5.49, 5.51 2.14 M0.91 7.42 C2.53 5.59, 4.16 3.78, 5.51 2.14 M3.28 10.8 C6.07 7.48, 7.73 4.45, 10.49 2.5 M3.28 10.8 C5.12 8.89, 7.14 5.79, 10.49 2.5 M8.92 10.4 C11.16 7.79, 13.32 6.03, 16.14 2.1 M8.92 10.4 C11.1 7.52, 14.72 4.28, 16.14 2.1 M13.91 10.76 C17.57 7.74, 18.39 5.66, 21.12 2.46 M13.91 10.76 C15.88 8.19, 18.65 5.98, 21.12 2.46 M19.55 10.37 C21.51 8.64, 23.18 7.03, 26.11 2.82 M19.55 10.37 C21.27 8.04, 23.31 6.29, 26.11 2.82 M24.54 10.73 C26.7 8.66, 28.78 6.93, 33.07 0.92 M24.54 10.73 C28.05 7.62, 31.22 3.23, 33.07 0.92 M30.18 10.34 C33.15 7.42, 34.02 5.61, 36.08 3.54 M30.18 10.34 C31.79 8.02, 33.62 6.28, 36.08 3.54" stroke="#fa5252" stroke-width="0.5" fill="none"></path><path d="M2.37 0 M2.37 0 C14.39 0.36, 22.9 0.81, 31.77 0 M2.37 0 C8.92 -0.33, 17.68 0.11, 31.77 0 M31.77 0 C32.47 0.85, 33.38 -1.17, 34.14 2.37 M31.77 0 C31.84 1.74, 33.14 1.9, 34.14 2.37 M34.14 2.37 C34.24 3.78, 33.75 5.86, 34.14 7.12 M34.14 2.37 C34.12 3.71, 34.01 5.39, 34.14 7.12 M34.14 7.12 C35.03 8.68, 33.06 7.69, 31.77 9.5 M34.14 7.12 C35.66 6.89, 35.25 11, 31.77 9.5 M31.77 9.5 C20.86 8.02, 12.31 10.88, 2.37 9.5 M31.77 9.5 C23.07 9.05, 12.67 10.22, 2.37 9.5 M2.37 9.5 C-1 10.57, -0.15 7.55, 0 7.12 M2.37 9.5 C-0.72 7.76, -0.3 7.29, 0 7.12 M0 7.12 C-0.06 5.67, -0.44 4.4, 0 2.37 M0 7.12 C0.28 5.51, 0.11 3.81, 0 2.37 M0 2.37 C-1.01 0.66, 2.52 1.25, 2.37 0 M0 2.37 C-1.62 -0.45, -0.83 0.96, 2.37 0" stroke="#c92a2a" stroke-width="1" fill="none"></path></g></svg>