<svg version="1.1" xmlns="http://www.w3.org/2000/svg" viewBox="0 0 233.26707851151878 149.79219513273233" width="233.26707851151878" height="149.79219513273233">
  <!-- svg-source:excalidraw -->
  
  <defs>
    <style class="style-fonts">
      @font-face {
        font-family: "Virgil";
        src: url("https://excalidraw.com/Virgil.woff2");
      }
      @font-face {
        font-family: "Cascadia";
        src: url("https://excalidraw.com/Cascadia.woff2");
      }
    </style>
  </defs>
  <rect x="0" y="0" width="233.26707851151878" height="149.79219513273233" fill="#ffffff"></rect><g stroke-opacity="0.7" fill-opacity="0.7" stroke-linecap="round" transform="translate(10 10) rotate(0 106.63353925575939 64.89609756636617)"><path d="M32 0 M32 0 C88.37 1.34, 144.78 -0.49, 181.27 0 M32 0 C82.11 -0.51, 132.46 -0.44, 181.27 0 M181.27 0 C202.57 0.71, 212.22 12.6, 213.27 32 M181.27 0 C202.22 -1.5, 213.82 10.6, 213.27 32 M213.27 32 C212.12 46.27, 215.63 61.72, 213.27 97.79 M213.27 32 C214.45 45.39, 212.86 58.93, 213.27 97.79 M213.27 97.79 C213.56 118.93, 202.28 128.61, 181.27 129.79 M213.27 97.79 C214.89 117.34, 200.67 128.63, 181.27 129.79 M181.27 129.79 C142.28 129.37, 99.85 130.06, 32 129.79 M181.27 129.79 C138.35 129.75, 95.01 129.8, 32 129.79 M32 129.79 C8.9 131.39, -1.16 121.03, 0 97.79 M32 129.79 C11.9 128.84, -0.78 119.07, 0 97.79 M0 97.79 C-0.36 72.09, 1.76 47.74, 0 32 M0 97.79 C0.25 85.53, -0.82 70.99, 0 32 M0 32 C0.28 10.3, 10.64 -1.01, 32 0 M0 32 C1.82 9.03, 10.93 -2.24, 32 0" stroke="#087f5b" stroke-width="1" fill="none"></path></g><g stroke-opacity="0.7" fill-opacity="0.7" stroke-linecap="round" transform="translate(66.38915014375198 32.13832174286654) rotate(0 55.61153833275284 31.59746496179139)"><path d="M15.8 0 M15.8 0 C40.37 -1.1, 62.93 -2.36, 95.42 0 M15.8 0 C38.23 -0.07, 61.55 0.91, 95.42 0 M95.42 0 C104.91 1.94, 110.89 3.96, 111.22 15.8 M95.42 0 C106.51 -0.07, 109.65 6.65, 111.22 15.8 M111.22 15.8 C112.94 21.94, 109.19 30.57, 111.22 47.4 M111.22 15.8 C110.77 24.08, 111.64 33.86, 111.22 47.4 M111.22 47.4 C110.9 56.75, 107.37 61.64, 95.42 63.19 M111.22 47.4 C109.29 56.76, 105.36 63.14, 95.42 63.19 M95.42 63.19 C78.57 65.03, 60.64 63.23, 15.8 63.19 M95.42 63.19 C75.05 64.64, 55.47 64.61, 15.8 63.19 M15.8 63.19 C4.11 65.1, 1.07 57.1, 0 47.4 M15.8 63.19 C4.49 63.14, 1.88 56.33, 0 47.4 M0 47.4 C1.43 35.28, -1.84 22.64, 0 15.8 M0 47.4 C-0.93 34.89, 0.08 22.76, 0 15.8 M0 15.8 C-0.02 4.25, 6.85 -1.43, 15.8 0 M0 15.8 C0.26 3.02, 2.99 1.73, 15.8 0" stroke="#087f5b" stroke-width="1" fill="none"></path></g><g stroke-opacity="0.7" fill-opacity="0.7" stroke-linecap="round" transform="translate(19.491693775849058 18.986891498935847) rotate(0 12.486171119902451 13.492115033514324)"><path d="M6.24 0 M6.24 0 C9.44 -0.31, 12.08 -0.45, 18.73 0 M6.24 0 C8.88 0.56, 12.06 -0.45, 18.73 0 M18.73 0 C23.37 -0.06, 23.6 3.29, 24.97 6.24 M18.73 0 C21.01 -1.78, 23.86 4.34, 24.97 6.24 M24.97 6.24 C24.66 11.3, 24.15 12.8, 24.97 20.74 M24.97 6.24 C24.88 9, 25.51 12.06, 24.97 20.74 M24.97 20.74 C23.3 23.89, 22.37 26.94, 18.73 26.98 M24.97 20.74 C23.06 27.11, 23.84 27.45, 18.73 26.98 M18.73 26.98 C13.36 26.71, 10.31 25.92, 6.24 26.98 M18.73 26.98 C13.59 27.68, 9.5 26.83, 6.24 26.98 M6.24 26.98 C1.4 26.94, 1.63 23.51, 0 20.74 M6.24 26.98 C4.13 26.05, -0.67 26.4, 0 20.74 M0 20.74 C1.4 16.55, 1.59 10.52, 0 6.24 M0 20.74 C-0.03 16.43, 0.55 12.35, 0 6.24 M0 6.24 C0.23 0.13, 0.1 1.5, 6.24 0 M0 6.24 C0.22 1.32, 1.18 -2.11, 6.24 0" stroke="#087f5b" stroke-width="1" fill="none"></path></g><g stroke-opacity="0.7" fill-opacity="0.7" stroke-linecap="round" transform="translate(17.023226298302234 50.04504602034103) rotate(0 15.294711787062454 39.970180136856584)"><path d="M7.65 0 M7.65 0 C9.72 -0.64, 12.98 0.03, 22.94 0 M7.65 0 C12.65 -0.65, 18.09 -0.17, 22.94 0 M22.94 0 C26.67 1.21, 28.95 1, 30.59 7.65 M22.94 0 C26.93 2.26, 29.73 0.5, 30.59 7.65 M30.59 7.65 C29.55 28.78, 28.91 53.12, 30.59 72.29 M30.59 7.65 C31.19 25.63, 29.65 44.67, 30.59 72.29 M30.59 72.29 C30.07 77.35, 26.37 81.86, 22.94 79.94 M30.59 72.29 C31.54 77.85, 29.78 79.62, 22.94 79.94 M22.94 79.94 C19.76 78.63, 15.48 78.56, 7.65 79.94 M22.94 79.94 C17.54 79.77, 11.06 80.07, 7.65 79.94 M7.65 79.94 C4.18 78.55, 1.78 76.58, 0 72.29 M7.65 79.94 C1.88 81.44, 0.21 75.13, 0 72.29 M0 72.29 C1.43 51.68, -1.13 34.84, 0 7.65 M0 72.29 C0.8 53.37, 0.12 34.9, 0 7.65 M0 7.65 C-1.98 4.05, 2.74 -0.66, 7.65 0 M0 7.65 C-0.9 0.44, 1.36 -1.56, 7.65 0" stroke="#087f5b" stroke-width="1" fill="none"></path></g><g stroke-opacity="0.6" fill-opacity="0.6" transform="translate(23.34504050362102 26.16050862262955) rotate(0 8.341666221618652 3.6905792996279843)"><text x="0" y="0" font-family="Virgil, Segoe UI Emoji" font-size="5.9049268794047896px" fill="#087f5b" text-anchor="start" style="white-space: pre;" direction="ltr" dominant-baseline="text-before-edge">Photo</text></g><g stroke-opacity="0.6" fill-opacity="0.6" transform="translate(22.72781275068428 57.38650767813124) rotate(0 7.941666603088379 3.4742563041867243)"><text x="0" y="0" font-family="Virgil, Segoe UI Emoji" font-size="5.558810086698673px" fill="#087f5b" text-anchor="start" style="white-space: pre;" direction="ltr" dominant-baseline="text-before-edge">About</text></g><g stroke-opacity="0.6" fill-opacity="0.6" transform="translate(24.475658788495366 69.62227710778097) rotate(0 6.958333492279053 2.1487146159745407)"><text x="0" y="0" font-family="Virgil, Segoe UI Emoji" font-size="3.437943385559337px" fill="#087f5b" text-anchor="start" style="white-space: pre;" direction="ltr" dominant-baseline="text-before-edge">My skills</text></g><g stroke-opacity="0.6" fill-opacity="0.6" transform="translate(22.926305137926192 78.79910418001873) rotate(0 9.591666221618652 2.7490000230189935)"><text x="0" y="0" font-family="Virgil, Segoe UI Emoji" font-size="4.398400036830319px" fill="#087f5b" text-anchor="start" style="white-space: pre;" direction="ltr" dominant-baseline="text-before-edge">My works</text></g><g stroke-opacity="0.6" fill-opacity="0.6" transform="translate(22.812785575856196 88.995578704727) rotate(0 10.050000190734863 3.16836206844539)"><text x="0" y="0" font-family="Virgil, Segoe UI Emoji" font-size="5.069379309512704px" fill="#087f5b" text-anchor="start" style="white-space: pre;" direction="ltr" dominant-baseline="text-before-edge">Contact</text></g><g stroke-opacity="0.6" fill-opacity="0.6" transform="translate(20.286098146208133 101.63920711536548) rotate(0 12.366666793823242 1.944477080184015)"><text x="0" y="0" font-family="Virgil, Segoe UI Emoji" font-size="3.111163328294351px" fill="#087f5b" text-anchor="start" style="white-space: pre;" direction="ltr" dominant-baseline="text-before-edge">Survivor’s note </text></g><g stroke-opacity="0.6" fill-opacity="0.6" transform="translate(107.67649182310106 38.12484416551797) rotate(0 12.683333396911621 4.004488377759003)"><text x="0" y="0" font-family="Virgil, Segoe UI Emoji" font-size="6.407181404414316px" fill="#087f5b" text-anchor="start" style="white-space: pre;" direction="ltr" dominant-baseline="text-before-edge">Contact</text></g><g stroke-opacity="0.6" fill-opacity="0.6" stroke-linecap="round" transform="translate(56.42565491083326 114.51038786003755) rotate(0 69.05380488324414 8.342931816748774)"><path d="M4.17 0 M4.17 0 C33.9 1.79, 62.51 0.26, 133.94 0 M4.17 0 C39.24 -0.5, 75.07 -0.46, 133.94 0 M133.94 0 C136.01 -1.72, 139.23 2.5, 138.11 4.17 M133.94 0 C134.68 -1.35, 138.75 1.46, 138.11 4.17 M138.11 4.17 C137.55 6.3, 137.39 8.15, 138.11 12.51 M138.11 4.17 C138.06 7.14, 138.14 10.54, 138.11 12.51 M138.11 12.51 C139.39 13.67, 137.53 15.04, 133.94 16.69 M138.11 12.51 C135.9 15.49, 134.43 15.91, 133.94 16.69 M133.94 16.69 C101.8 17.34, 66.12 13.76, 4.17 16.69 M133.94 16.69 C84.38 16.54, 34.05 16.77, 4.17 16.69 M4.17 16.69 C1.2 16.17, 1.8 16.68, 0 12.51 M4.17 16.69 C1.57 18.86, 2.17 13.24, 0 12.51 M0 12.51 C0.18 9.86, 0.02 5.81, 0 4.17 M0 12.51 C-0.09 10.77, -0.32 8.9, 0 4.17 M0 4.17 C-0.66 0.29, -0.51 1.29, 4.17 0 M0 4.17 C-1.85 1.9, 1.88 -2.09, 4.17 0" stroke="#087f5b" stroke-width="1" fill="none"></path></g><g stroke-opacity="0.6" fill-opacity="0.6" transform="translate(106.73995140568798 117.59085499237563) rotate(0 10.983333587646484 4.373108972294517)"><text x="0" y="0" font-family="Virgil, Segoe UI Emoji" font-size="6.996974355671295px" fill="#087f5b" text-anchor="start" style="white-space: pre;" direction="ltr" dominant-baseline="text-before-edge">footer</text></g></svg>