<svg version="1.1" xmlns="http://www.w3.org/2000/svg" viewBox="0 0 342.5116729135698 149.79219513273233" width="342.5116729135698" height="149.79219513273233">
  <!-- svg-source:excalidraw -->
  
  <defs>
    <style class="style-fonts">
      @font-face {
        font-family: "Virgil";
        src: url("https://excalidraw.com/Virgil.woff2");
      }
      @font-face {
        font-family: "Cascadia";
        src: url("https://excalidraw.com/Cascadia.woff2");
      }
    </style>
  </defs>
  <rect x="0" y="0" width="342.5116729135698" height="149.79219513273233" fill="#ffffff"></rect><g stroke-opacity="0.7" fill-opacity="0.7" stroke-linecap="round" transform="translate(10 10) rotate(0 106.63353925575939 64.89609756636617)"><path d="M32 0 M32 0 C86.02 -0.34, 141.27 -1.49, 181.27 0 M32 0 C87.36 0.52, 144.55 1.5, 181.27 0 M181.27 0 C202.15 -1.27, 211.87 10.29, 213.27 32 M181.27 0 C200.51 -1.82, 212.42 9.13, 213.27 32 M213.27 32 C214.49 57.59, 215.35 82.39, 213.27 97.79 M213.27 32 C213.34 58.44, 212 83.73, 213.27 97.79 M213.27 97.79 C213.2 119.04, 203.69 131.32, 181.27 129.79 M213.27 97.79 C213.68 118.03, 200.49 131.82, 181.27 129.79 M181.27 129.79 C149.63 128.72, 114.55 128.41, 32 129.79 M181.27 129.79 C148.38 130.8, 115.25 129.84, 32 129.79 M32 129.79 C9.11 129.14, 1.54 119.76, 0 97.79 M32 129.79 C11.79 127.77, -0.53 117.16, 0 97.79 M0 97.79 C-0.33 77.31, 2 55.75, 0 32 M0 97.79 C0.7 72.98, 0.04 47.57, 0 32 M0 32 C-0.09 11.91, 8.83 -0.56, 32 0 M0 32 C-0.83 9.71, 9.82 -1.75, 32 0" stroke="#087f5b" stroke-width="1" fill="none"></path></g><g stroke-opacity="0.7" fill-opacity="0.7" stroke-linecap="round" transform="translate(65.46022707713212 34.92509094272748) rotate(0 54.35439578259337 30.883179421928048)"><path d="M15.44 0 M15.44 0 C34.73 -0.09, 50.39 -1.54, 93.27 0 M15.44 0 C39.45 -0.67, 62.65 -0.03, 93.27 0 M93.27 0 C103.19 -0.21, 110.4 4.83, 108.71 15.44 M93.27 0 C101.82 0.98, 110.04 4.5, 108.71 15.44 M108.71 15.44 C107.22 21.51, 110.51 28.44, 108.71 46.32 M108.71 15.44 C108.7 25.14, 108.39 34.91, 108.71 46.32 M108.71 46.32 C109.02 55.39, 103.71 61.69, 93.27 61.77 M108.71 46.32 C108.43 56.98, 102.55 60.67, 93.27 61.77 M93.27 61.77 C63.91 59.83, 32.79 59.3, 15.44 61.77 M93.27 61.77 C74.05 60.45, 54.08 60.33, 15.44 61.77 M15.44 61.77 C6.12 63.23, -1.29 57.11, 0 46.32 M15.44 61.77 C2.89 61.63, -1.27 57.31, 0 46.32 M0 46.32 C1.42 35.99, 0.12 22.84, 0 15.44 M0 46.32 C-0.64 35.71, -0.52 23.87, 0 15.44 M0 15.44 C1.36 4.09, 6.69 1.36, 15.44 0 M0 15.44 C0.34 5.22, 5.88 0.82, 15.44 0" stroke="#087f5b" stroke-width="1" fill="none"></path></g><g stroke-opacity="0.7" fill-opacity="0.7" stroke-linecap="round" transform="translate(19.67430967472626 19.047763465227717) rotate(0 11.522016212920391 13.765240608356208)"><path d="M5.76 0 M5.76 0 C10.4 0.07, 12.97 -0.85, 17.28 0 M5.76 0 C8.54 0.49, 11.88 -0.17, 17.28 0 M17.28 0 C21.48 -0.67, 24.79 1.4, 23.04 5.76 M17.28 0 C22.45 1.75, 25 0.82, 23.04 5.76 M23.04 5.76 C22.39 10.7, 24.06 15.33, 23.04 21.77 M23.04 5.76 C23.56 9.77, 23.39 12.28, 23.04 21.77 M23.04 21.77 C23.21 25.21, 21.5 28.02, 17.28 27.53 M23.04 21.77 C23.52 26.92, 20.81 29.79, 17.28 27.53 M17.28 27.53 C14.28 27.62, 9.78 27.13, 5.76 27.53 M17.28 27.53 C12.53 27.01, 7.88 27.2, 5.76 27.53 M5.76 27.53 C0.57 26.79, 0.09 25.57, 0 21.77 M5.76 27.53 C3.57 28.74, 1.58 26.66, 0 21.77 M0 21.77 C0.18 16.87, -1.02 9.16, 0 5.76 M0 21.77 C-0.86 18.73, 0.18 15.38, 0 5.76 M0 5.76 C-1.7 2.29, 0.57 -1.63, 5.76 0 M0 5.76 C1.02 0.25, 4 0.41, 5.76 0" stroke="#087f5b" stroke-width="1" fill="none"></path></g><g stroke-opacity="0.7" fill-opacity="0.7" stroke-linecap="round" transform="translate(17.023226298302234 50.04504602034103) rotate(0 15.294711787062454 39.970180136856584)"><path d="M7.65 0 M7.65 0 C11.57 -0.15, 12.81 0.48, 22.94 0 M7.65 0 C11.82 -0.31, 15.48 -0.68, 22.94 0 M22.94 0 C27.2 -0.84, 30.79 1.11, 30.59 7.65 M22.94 0 C27.66 -1.25, 30.67 4.65, 30.59 7.65 M30.59 7.65 C31.68 19.57, 29.35 33.11, 30.59 72.29 M30.59 7.65 C31.57 28.87, 30.47 52.12, 30.59 72.29 M30.59 72.29 C32.34 77.58, 27.66 78.69, 22.94 79.94 M30.59 72.29 C30.3 76.29, 28.3 78.71, 22.94 79.94 M22.94 79.94 C19.21 79.85, 16.6 80.73, 7.65 79.94 M22.94 79.94 C19.44 79.63, 16.58 80.35, 7.65 79.94 M7.65 79.94 C3.61 79.95, 1.82 75.68, 0 72.29 M7.65 79.94 C2.19 79.95, -0.61 75.26, 0 72.29 M0 72.29 C1.54 54.28, 0.46 39.5, 0 7.65 M0 72.29 C0.37 57.32, -0.05 40.33, 0 7.65 M0 7.65 C1.82 3.89, 3.24 0.05, 7.65 0 M0 7.65 C1.07 3.07, 3.91 1.7, 7.65 0" stroke="#087f5b" stroke-width="1" fill="none"></path></g><g stroke-opacity="0.6" fill-opacity="0.6" transform="translate(24.772546937080506 26.36443811312347) rotate(0 6.508333206176758 3.6905792996279843)"><text x="0" y="0" font-family="Virgil, Segoe UI Emoji" font-size="5.9049268794047896px" fill="#087f5b" text-anchor="start" style="white-space: pre;" direction="ltr" dominant-baseline="text-before-edge">Logo</text></g><g stroke-opacity="0.6" fill-opacity="0.6" transform="translate(22.727812750684507 57.38650767813107) rotate(0 7.941666603088379 3.4742563041866674)"><text x="0" y="0" font-family="Virgil, Segoe UI Emoji" font-size="5.558810086698673px" fill="#087f5b" text-anchor="start" style="white-space: pre;" direction="ltr" dominant-baseline="text-before-edge">About</text></g><g stroke-opacity="0.6" fill-opacity="0.6" transform="translate(24.475658788495252 69.62227710778097) rotate(0 6.958333492279053 2.1487146159745976)"><text x="0" y="0" font-family="Virgil, Segoe UI Emoji" font-size="3.437943385559337px" fill="#087f5b" text-anchor="start" style="white-space: pre;" direction="ltr" dominant-baseline="text-before-edge">My skills</text></g><g stroke-opacity="0.6" fill-opacity="0.6" transform="translate(22.92630513792642 78.7991041800185) rotate(0 9.591666221618652 2.7490000230189366)"><text x="0" y="0" font-family="Virgil, Segoe UI Emoji" font-size="4.398400036830319px" fill="#087f5b" text-anchor="start" style="white-space: pre;" direction="ltr" dominant-baseline="text-before-edge">My works</text></g><g stroke-opacity="0.6" fill-opacity="0.6" transform="translate(22.812785575856424 88.99557870472688) rotate(0 10.050000190734863 3.1683620684454468)"><text x="0" y="0" font-family="Virgil, Segoe UI Emoji" font-size="5.069379309512704px" fill="#087f5b" text-anchor="start" style="white-space: pre;" direction="ltr" dominant-baseline="text-before-edge">Contact</text></g><g stroke-opacity="0.6" fill-opacity="0.6" transform="translate(20.286098146208246 101.63920711536502) rotate(0 12.366666793823242 1.9444770801839582)"><text x="0" y="0" font-family="Virgil, Segoe UI Emoji" font-size="3.111163328294351px" fill="#087f5b" text-anchor="start" style="white-space: pre;" direction="ltr" dominant-baseline="text-before-edge">Survivor’s note </text></g><g stroke-opacity="0.6" fill-opacity="0.6" transform="translate(101.1761364038556 39.71156413643649) rotate(0 17.200000762939453 4.039923590224333)"><text x="0" y="0" font-family="Virgil, Segoe UI Emoji" font-size="6.4638777443589355px" fill="#087f5b" text-anchor="start" style="white-space: pre;" direction="ltr" dominant-baseline="text-before-edge">Description</text></g><g stroke-opacity="0.6" fill-opacity="0.6" stroke-linecap="round" transform="translate(237.54278988868919 17.70799681307369) rotate(0 17.885059583772545 4.229672479052624)"><path d="M-0.26 2.42 C-0.26 2.42, -0.26 2.42, -0.26 2.42 M-0.26 2.42 C-0.26 2.42, -0.26 2.42, -0.26 2.42 M0.79 7.31 C2.21 5.2, 4.41 3.61, 4.72 2.78 M0.79 7.31 C1.81 6.2, 2.43 5.37, 4.72 2.78 M3.8 9.93 C5.1 6.93, 6.85 5, 10.37 2.39 M3.8 9.93 C5.48 7.79, 7.86 5.64, 10.37 2.39 M8.79 10.29 C11.38 6.58, 14.55 4.26, 15.35 2.75 M8.79 10.29 C10.18 8.02, 11.84 6.78, 15.35 2.75 M14.43 9.9 C16.56 7.7, 18.48 5.11, 21 2.35 M14.43 9.9 C16.41 7.84, 17.6 6.52, 21 2.35 M19.42 10.26 C21.61 6.69, 23.79 5.5, 25.98 2.71 M19.42 10.26 C21.52 8.01, 24.23 5.02, 25.98 2.71 M25.06 9.86 C26.19 7.93, 28.23 4.94, 31.63 2.32 M25.06 9.86 C26.85 8.42, 28.68 5.7, 31.63 2.32 M30.05 10.22 C31.63 7.8, 34.94 5.93, 37.27 1.92 M30.05 10.22 C32.51 7.54, 34.93 3.84, 37.27 1.92" stroke="#12b886" stroke-width="0.5" fill="none"></path><path d="M2.11 0 M2.11 0 C9.72 0.48, 19.66 1.38, 33.66 0 M2.11 0 C14.72 -0.12, 24.57 0.53, 33.66 0 M33.66 0 C35.83 -1.22, 34.47 -0.05, 35.77 2.11 M33.66 0 C36.82 0.74, 35.13 2.64, 35.77 2.11 M35.77 2.11 C35.94 3.57, 36.05 4.06, 35.77 6.34 M35.77 2.11 C35.75 3.72, 35.66 5.47, 35.77 6.34 M35.77 6.34 C36.07 7.92, 35.84 7, 33.66 8.46 M35.77 6.34 C35.63 8.93, 33.77 7.34, 33.66 8.46 M33.66 8.46 C24.21 8.97, 12.69 8.53, 2.11 8.46 M33.66 8.46 C26.88 8.21, 19.63 9.07, 2.11 8.46 M2.11 8.46 C1.68 7.52, -0.65 9.14, 0 6.34 M2.11 8.46 C0.25 10.04, 1.39 5.53, 0 6.34 M0 6.34 C-0.12 4.85, 0.27 4.1, 0 2.11 M0 6.34 C-0.17 4.67, 0.02 2.77, 0 2.11 M0 2.11 C-0.72 1.4, 0.3 1.63, 2.11 0 M0 2.11 C1.06 0.51, 0.81 0.94, 2.11 0" stroke="#087f5b" stroke-width="1" fill="none"></path></g><g stroke-opacity="0.6" fill-opacity="0.6" transform="translate(288.91164311243006 16.527935223259988) rotate(0 20.308332443237305 4.901234737421419)"><text x="0" y="0" font-family="Virgil, Segoe UI Emoji" font-size="7.841975579874279px" fill="#087f5b" text-anchor="start" style="white-space: pre;" direction="ltr" dominant-baseline="text-before-edge">Must have</text></g><g stroke-opacity="0.6" fill-opacity="0.6" stroke-linecap="round" transform="translate(240.5377474637669 37.336302618884076) rotate(0 17.335625050058752 4.014266015621814)"><path d="M0.53 0.46 C0.53 0.46, 0.53 0.46, 0.53 0.46 M0.53 0.46 C0.53 0.46, 0.53 0.46, 0.53 0.46 M0.27 6.86 C1.05 5.78, 1.71 4.69, 4.21 2.33 M0.27 6.86 C1.49 5.53, 2.95 3.9, 4.21 2.33 M3.29 9.49 C3.79 7.36, 6.38 6.96, 9.85 1.94 M3.29 9.49 C5.03 7.33, 7.01 5.21, 9.85 1.94 M8.93 9.09 C10.35 7.76, 11.7 5.36, 14.84 2.3 M8.93 9.09 C10.98 6.62, 12.39 5.18, 14.84 2.3 M13.92 9.45 C14.88 7.45, 17.83 4.38, 20.48 1.9 M13.92 9.45 C16 6.58, 18.3 3.82, 20.48 1.9 M19.56 9.06 C22.44 6.16, 24.76 4.46, 25.47 2.26 M19.56 9.06 C21.45 6.67, 22.68 5.21, 25.47 2.26 M24.55 9.42 C27.09 6.66, 29.77 4.15, 32.42 0.36 M24.55 9.42 C27.51 6.18, 29.72 2.53, 32.42 0.36 M30.19 9.02 C32.05 8.57, 32.31 6.28, 35.44 2.99 M30.19 9.02 C31.51 8.05, 32.67 6.9, 35.44 2.99" stroke="#4c6ef5" stroke-width="0.5" fill="none"></path><path d="M2.01 0 M2.01 0 C9.62 -0.95, 17.49 -1.65, 32.66 0 M2.01 0 C14.13 0.15, 24.94 0.47, 32.66 0 M32.66 0 C33.97 -1.35, 33.58 0.88, 34.67 2.01 M32.66 0 C32.41 -1.36, 32.56 0.83, 34.67 2.01 M34.67 2.01 C34.53 2.74, 34.41 4.31, 34.67 6.02 M34.67 2.01 C34.79 3.24, 34.61 4.58, 34.67 6.02 M34.67 6.02 C33.94 8.95, 35.92 9.09, 32.66 8.03 M34.67 6.02 C33.45 5.41, 33.31 5.95, 32.66 8.03 M32.66 8.03 C22.39 9.4, 16.78 7.76, 2.01 8.03 M32.66 8.03 C24.04 8.17, 15.13 8.46, 2.01 8.03 M2.01 8.03 C1.96 8.15, 1.49 8.06, 0 6.02 M2.01 8.03 C2.78 6.49, 0.3 8.77, 0 6.02 M0 6.02 C0.11 5.51, -0.09 4.61, 0 2.01 M0 6.02 C-0.02 4.91, 0.09 3.49, 0 2.01 M0 2.01 C1.53 1.19, 1.68 1.18, 2.01 0 M0 2.01 C-2.06 0.81, -0.75 -2.26, 2.01 0" stroke="#364fc7" stroke-width="1" fill="none"></path></g><g stroke-opacity="0.6" fill-opacity="0.6" transform="translate(289.0450057382768 37.476020856026366) rotate(0 21.733333587646484 4.750667298159414)"><text x="0" y="0" font-family="Virgil, Segoe UI Emoji" font-size="7.601067677055071px" fill="#364fc7" text-anchor="start" style="white-space: pre;" direction="ltr" dominant-baseline="text-before-edge">should have</text></g><g stroke-opacity="0.6" fill-opacity="0.6" transform="translate(290.6042370767075 57.02239253266805) rotate(0 20.308332443237305 4.894766234232748)"><text x="0" y="0" font-family="Virgil, Segoe UI Emoji" font-size="7.831625974772397px" fill="#c92a2a" text-anchor="start" style="white-space: pre;" direction="ltr" dominant-baseline="text-before-edge">could have</text></g><g stroke-opacity="0.6" fill-opacity="0.6" stroke-linecap="round" transform="translate(240.80335177057555 57.022392532668164) rotate(0 17.070922025039977 4.749053495687775)"><path d="M-0.14 2.53 C-0.14 2.53, -0.14 2.53, -0.14 2.53 M-0.14 2.53 C-0.14 2.53, -0.14 2.53, -0.14 2.53 M0.91 7.42 C2.18 4.83, 4.49 3.91, 5.51 2.14 M0.91 7.42 C2.26 5.48, 3.52 4.38, 5.51 2.14 M3.28 10.8 C5.37 7.61, 9.68 5.27, 10.49 2.5 M3.28 10.8 C6.05 7.14, 9.06 4.43, 10.49 2.5 M8.92 10.4 C10.31 7.13, 14.53 4.21, 16.14 2.1 M8.92 10.4 C11.78 7.3, 13.04 5.09, 16.14 2.1 M13.91 10.76 C16.12 6.58, 19.54 5.34, 21.12 2.46 M13.91 10.76 C16.37 7.4, 19.25 4.35, 21.12 2.46 M19.55 10.37 C21.81 8.42, 24.45 5.1, 26.11 2.82 M19.55 10.37 C20.75 9.06, 22.41 6.85, 26.11 2.82 M24.54 10.73 C28.48 6.26, 31.48 4.58, 33.07 0.92 M24.54 10.73 C27.2 6.47, 30.19 3.14, 33.07 0.92 M30.18 10.34 C32.3 8.23, 35.36 5.27, 36.08 3.54 M30.18 10.34 C31.41 9.1, 32.6 7.07, 36.08 3.54" stroke="#fa5252" stroke-width="0.5" fill="none"></path><path d="M2.37 0 M2.37 0 C12.19 -0.74, 22.02 1.3, 31.77 0 M2.37 0 C12.56 0.03, 22.03 1.21, 31.77 0 M31.77 0 C34.68 0.92, 36.05 0.17, 34.14 2.37 M31.77 0 C34.9 1.72, 32.81 -0.73, 34.14 2.37 M34.14 2.37 C33.87 4.74, 34.51 6.4, 34.14 7.12 M34.14 2.37 C34.18 3.61, 34.23 4.51, 34.14 7.12 M34.14 7.12 C35.16 10.66, 32.83 10.97, 31.77 9.5 M34.14 7.12 C35.33 10.86, 33.15 11.11, 31.77 9.5 M31.77 9.5 C24.41 9.47, 16.55 7.59, 2.37 9.5 M31.77 9.5 C25.36 8.86, 20.49 10.04, 2.37 9.5 M2.37 9.5 C0.43 8.45, 0.01 9.79, 0 7.12 M2.37 9.5 C0.62 8.46, -0.7 9.83, 0 7.12 M0 7.12 C0.36 4.8, -0.16 3.14, 0 2.37 M0 7.12 C0.13 5.91, -0.1 4.62, 0 2.37 M0 2.37 C1.41 2.29, 2.04 1.54, 2.37 0 M0 2.37 C-0.61 2.97, 2.52 -1.02, 2.37 0" stroke="#c92a2a" stroke-width="1" fill="none"></path></g><g stroke-opacity="0.6" fill-opacity="0.6" stroke-linecap="round" transform="translate(57.7722629908244 117.86161839634428) rotate(0 69.0538048832442 8.342931816748774)"><path d="M4.17 0 M4.17 0 C32.25 -0.3, 54.67 -0.06, 133.94 0 M4.17 0 C31.29 -0.59, 59.31 -1.35, 133.94 0 M133.94 0 C134.9 0.82, 137.2 1.12, 138.11 4.17 M133.94 0 C134.63 -1.64, 136.64 -0.73, 138.11 4.17 M138.11 4.17 C138.44 7, 138.66 10.34, 138.11 12.51 M138.11 4.17 C138.51 7.11, 138.07 10.24, 138.11 12.51 M138.11 12.51 C139.17 14.98, 135.14 15.65, 133.94 16.69 M138.11 12.51 C136.06 15.14, 138.65 15.57, 133.94 16.69 M133.94 16.69 C89.73 16.31, 43.57 15.78, 4.17 16.69 M133.94 16.69 C102.37 17.73, 70.38 17.42, 4.17 16.69 M4.17 16.69 C1.17 18.28, -1.05 14.23, 0 12.51 M4.17 16.69 C3.64 17.11, -0.99 16.76, 0 12.51 M0 12.51 C-0.17 10.28, 0.71 6.34, 0 4.17 M0 12.51 C0.35 9.51, 0.27 7.31, 0 4.17 M0 4.17 C0.3 0.21, 0.59 -1.32, 4.17 0 M0 4.17 C-1.3 3.15, 3.53 0.37, 4.17 0" stroke="#087f5b" stroke-width="1" fill="none"></path></g><g stroke-opacity="0.6" fill-opacity="0.6" transform="translate(108.08655948567923 120.94208552868224) rotate(0 10.983333587646484 4.373108972294574)"><text x="0" y="0" font-family="Virgil, Segoe UI Emoji" font-size="6.996974355671295px" fill="#087f5b" text-anchor="start" style="white-space: pre;" direction="ltr" dominant-baseline="text-before-edge">footer</text></g></svg>