<svg version="1.1" xmlns="http://www.w3.org/2000/svg" viewBox="0 0 233.26707851151866 149.79219513273222" width="233.26707851151866" height="149.79219513273222">
  <!-- svg-source:excalidraw -->
  
  <defs>
    <style class="style-fonts">
      @font-face {
        font-family: "Virgil";
        src: url("https://excalidraw.com/Virgil.woff2");
      }
      @font-face {
        font-family: "Cascadia";
        src: url("https://excalidraw.com/Cascadia.woff2");
      }
    </style>
  </defs>
  <rect x="0" y="0" width="233.26707851151866" height="149.79219513273222" fill="#ffffff"></rect><g stroke-opacity="0.7" fill-opacity="0.7" stroke-linecap="round" transform="translate(10 10) rotate(0 106.63353925575933 64.89609756636611)"><path d="M32 0 M32 0 C70.16 1.17, 111.77 1.17, 181.27 0 M32 0 C81.81 0.61, 131.64 0.59, 181.27 0 M181.27 0 C201.43 1.25, 214.19 11.66, 213.27 32 M181.27 0 C201.35 0.36, 212.58 11.95, 213.27 32 M213.27 32 C214.11 52.46, 215.66 74.14, 213.27 97.79 M213.27 32 C213.1 48.59, 213.23 64.61, 213.27 97.79 M213.27 97.79 C214.35 121.03, 201.87 129.19, 181.27 129.79 M213.27 97.79 C212 118.76, 202.46 128.83, 181.27 129.79 M181.27 129.79 C141.73 128.57, 106.68 129.64, 32 129.79 M181.27 129.79 C135.28 129.55, 89.99 129.94, 32 129.79 M32 129.79 C8.74 128.57, 1.32 120.19, 0 97.79 M32 129.79 C12.74 128.68, -0.11 117.33, 0 97.79 M0 97.79 C0.99 82.05, 0.51 71.29, 0 32 M0 97.79 C-0.57 83.56, -0.15 67.98, 0 32 M0 32 C1.15 9.77, 10 1.62, 32 0 M0 32 C-0.91 12.96, 11.53 -2.06, 32 0" stroke="#087f5b" stroke-width="1" fill="none"></path></g><g stroke-opacity="0.7" fill-opacity="0.7" stroke-linecap="round" transform="translate(68.55663729919956 30.28047560962625) rotate(0 54.063333221719006 30.717802966885756)"><path d="M15.36 0 M15.36 0 C37.39 0.49, 58.64 -0.55, 92.77 0 M15.36 0 C39.44 0.12, 61.53 0.13, 92.77 0 M92.77 0 C103.93 1, 107.04 5.43, 108.13 15.36 M92.77 0 C102.32 1.28, 108.69 6.57, 108.13 15.36 M108.13 15.36 C110.17 23.84, 107.03 31.68, 108.13 46.08 M108.13 15.36 C108.82 24.4, 108.8 32.88, 108.13 46.08 M108.13 46.08 C107.4 55.71, 101.9 61.12, 92.77 61.44 M108.13 46.08 C107.99 55.36, 101.89 60.06, 92.77 61.44 M92.77 61.44 C77.2 62.73, 60.81 60.4, 15.36 61.44 M92.77 61.44 C74.2 62.69, 52.88 61.2, 15.36 61.44 M15.36 61.44 C6.44 62.5, 1.8 55.35, 0 46.08 M15.36 61.44 C5.01 59.64, -1.98 54.28, 0 46.08 M0 46.08 C-0.13 35.56, -1.5 22.49, 0 15.36 M0 46.08 C0.2 38.97, 0.68 31, 0 15.36 M0 15.36 C-0.67 6.74, 4.33 1.99, 15.36 0 M0 15.36 C0.86 3.06, 4.6 -2.23, 15.36 0" stroke="#087f5b" stroke-width="1" fill="none"></path></g><g stroke-opacity="0.7" fill-opacity="0.7" stroke-linecap="round" transform="translate(20.197210234203226 19.222063651720077) rotate(0 11.522016212920391 13.342255428337978)"><path d="M5.76 0 M5.76 0 C9.7 0.4, 14.33 0.83, 17.28 0 M5.76 0 C10.19 0.21, 13.78 0.02, 17.28 0 M17.28 0 C20.53 1.11, 23.54 3.18, 23.04 5.76 M17.28 0 C21.01 0.49, 22.01 4.19, 23.04 5.76 M23.04 5.76 C22.5 10.51, 23.96 14.83, 23.04 20.92 M23.04 5.76 C22.85 11.23, 22.71 17.03, 23.04 20.92 M23.04 20.92 C22.92 23.93, 20.15 25.49, 17.28 26.68 M23.04 20.92 C20.92 22.47, 21.31 27.25, 17.28 26.68 M17.28 26.68 C12.56 26.74, 9.51 27.65, 5.76 26.68 M17.28 26.68 C13.2 26.92, 8.87 26.34, 5.76 26.68 M5.76 26.68 C1.83 25.13, -1.72 22.99, 0 20.92 M5.76 26.68 C4.13 27.16, -1.91 24.69, 0 20.92 M0 20.92 C-0.83 14.62, 1.29 9.47, 0 5.76 M0 20.92 C-0.34 16.68, -0.39 11.96, 0 5.76 M0 5.76 C0.75 0.13, 1.47 -1.94, 5.76 0 M0 5.76 C-1.21 3.12, -0.2 0.24, 5.76 0" stroke="#087f5b" stroke-width="1" fill="none"></path></g><g stroke-opacity="0.7" fill-opacity="0.7" stroke-linecap="round" transform="translate(17.023226298302234 50.04504602034103) rotate(0 15.294711787062454 39.970180136856584)"><path d="M7.65 0 M7.65 0 C13.03 1.03, 17.4 -0.95, 22.94 0 M7.65 0 C12.78 0.04, 18.51 0.35, 22.94 0 M22.94 0 C28.53 1.26, 30.49 2.98, 30.59 7.65 M22.94 0 C27.01 2.27, 29.92 1.22, 30.59 7.65 M30.59 7.65 C31.72 22.29, 31.91 35.76, 30.59 72.29 M30.59 7.65 C29.8 33.05, 30.29 58.35, 30.59 72.29 M30.59 72.29 C29.62 76.2, 26.19 77.95, 22.94 79.94 M30.59 72.29 C30.78 77.96, 29.46 80.14, 22.94 79.94 M22.94 79.94 C19.94 81.32, 16.79 78.48, 7.65 79.94 M22.94 79.94 C19.97 79.65, 15.59 79.43, 7.65 79.94 M7.65 79.94 C0.83 78.17, 1.92 77.8, 0 72.29 M7.65 79.94 C0.64 79.86, 1.9 75.74, 0 72.29 M0 72.29 C1.95 50.7, 0.81 29.88, 0 7.65 M0 72.29 C-0.18 56.79, 0.59 38.4, 0 7.65 M0 7.65 C-0.45 0.61, 1.5 1.04, 7.65 0 M0 7.65 C-2.12 2.79, 2.99 0.08, 7.65 0" stroke="#087f5b" stroke-width="1" fill="none"></path></g><g stroke-opacity="0.6" fill-opacity="0.6" transform="translate(23.34504050362125 26.160508622629322) rotate(0 8.341666221618652 3.6905792996279843)"><text x="0" y="0" font-family="Virgil, Segoe UI Emoji" font-size="5.9049268794047896px" fill="#087f5b" text-anchor="start" style="white-space: pre;" direction="ltr" dominant-baseline="text-before-edge">Photo</text></g><g stroke-opacity="0.6" fill-opacity="0.6" transform="translate(22.727812750684507 57.38650767813124) rotate(0 7.941666603088379 3.4742563041866674)"><text x="0" y="0" font-family="Virgil, Segoe UI Emoji" font-size="5.558810086698673px" fill="#087f5b" text-anchor="start" style="white-space: pre;" direction="ltr" dominant-baseline="text-before-edge">About</text></g><g stroke-opacity="0.6" fill-opacity="0.6" transform="translate(24.475658788495366 69.62227710778097) rotate(0 6.958333492279053 2.1487146159745976)"><text x="0" y="0" font-family="Virgil, Segoe UI Emoji" font-size="3.437943385559337px" fill="#087f5b" text-anchor="start" style="white-space: pre;" direction="ltr" dominant-baseline="text-before-edge">My skills</text></g><g stroke-opacity="0.6" fill-opacity="0.6" transform="translate(22.92630513792642 78.79910418001873) rotate(0 9.591666221618652 2.7490000230189366)"><text x="0" y="0" font-family="Virgil, Segoe UI Emoji" font-size="4.398400036830319px" fill="#087f5b" text-anchor="start" style="white-space: pre;" direction="ltr" dominant-baseline="text-before-edge">My works</text></g><g stroke-opacity="0.6" fill-opacity="0.6" transform="translate(22.812785575856424 88.995578704727) rotate(0 10.050000190734863 3.1683620684454468)"><text x="0" y="0" font-family="Virgil, Segoe UI Emoji" font-size="5.069379309512704px" fill="#087f5b" text-anchor="start" style="white-space: pre;" direction="ltr" dominant-baseline="text-before-edge">Contact</text></g><g stroke-opacity="0.6" fill-opacity="0.6" transform="translate(20.286098146208133 101.63920711536502) rotate(0 12.366666793823242 1.9444770801839582)"><text x="0" y="0" font-family="Virgil, Segoe UI Emoji" font-size="3.111163328294351px" fill="#087f5b" text-anchor="start" style="white-space: pre;" direction="ltr" dominant-baseline="text-before-edge">Survivor’s note </text></g><g stroke-opacity="0.6" fill-opacity="0.6" transform="translate(111.9491754562141 38.05809064497009) rotate(0 8.550000190734863 2.640151688223)"><text x="0" y="0" font-family="Virgil, Segoe UI Emoji" font-size="4.224242701156798px" fill="#087f5b" text-anchor="start" style="white-space: pre;" direction="ltr" dominant-baseline="text-before-edge">My skills</text></g><g stroke-opacity="0.6" fill-opacity="0.6" stroke-linecap="round" transform="translate(57.23759901542667 113.63235806686612) rotate(0 69.05380488324425 8.342931816748774)"><path d="M4.17 0 M4.17 0 C55.3 -0.37, 106.22 2.43, 133.94 0 M4.17 0 C52.39 -1.39, 99.57 -0.31, 133.94 0 M133.94 0 C134.75 1.53, 136.83 1.87, 138.11 4.17 M133.94 0 C136.68 2.05, 139.31 2.04, 138.11 4.17 M138.11 4.17 C138.73 5.84, 138.8 8.77, 138.11 12.51 M138.11 4.17 C138 6.31, 138.46 8.19, 138.11 12.51 M138.11 12.51 C137.46 16.94, 136.66 16.21, 133.94 16.69 M138.11 12.51 C140.21 15.75, 134.87 17.94, 133.94 16.69 M133.94 16.69 C106.09 18.44, 81.22 15.61, 4.17 16.69 M133.94 16.69 C98.01 16.29, 62.17 15.25, 4.17 16.69 M4.17 16.69 C-0.3 16.92, 0.48 13.53, 0 12.51 M4.17 16.69 C0.52 18.13, 1.34 13.86, 0 12.51 M0 12.51 C-0.16 9.37, 0 6.35, 0 4.17 M0 12.51 C0.18 9.62, -0.36 6.53, 0 4.17 M0 4.17 C0.17 -0.37, 2.69 -0.82, 4.17 0 M0 4.17 C-0.91 1.64, 2.29 -1.99, 4.17 0" stroke="#087f5b" stroke-width="1" fill="none"></path></g><g stroke-opacity="0.6" fill-opacity="0.6" transform="translate(107.55189551028138 116.71282519920396) rotate(0 10.983333587646484 4.373108972294574)"><text x="0" y="0" font-family="Virgil, Segoe UI Emoji" font-size="6.996974355671295px" fill="#087f5b" text-anchor="start" style="white-space: pre;" direction="ltr" dominant-baseline="text-before-edge">footer</text></g></svg>