<?xml version="1.0" ?><svg data-name="Layer 1" height="64" id="Layer_1" viewBox="0 0 64 64" width="64" xmlns="http://www.w3.org/2000/svg"><defs><style>.cls-1{fill:#1d1d1b;}</style></defs><title/><path class="cls-1" d="M54.24,23.53c-1.37-4-5.53-8.53-7.25-10S42.3,9.58,35.62,8.94s-10.85.35-14.79,2.5c-5.65,3.09-9.37,7.09-11.28,13.69A23.22,23.22,0,0,0,10,40.5c1.5,4.53,4.5,7.72,8.28,10.72S28,55.31,34,55.25s11.75-4,14.81-7.59a35.41,35.41,0,0,0,6.06-11.78C56,32.22,55.62,27.53,54.24,23.53ZM53,35.56a32.63,32.63,0,0,1-5.57,10.83c-2.82,3.33-8.16,6.92-13.62,7s-10.91-.95-14.39-3.7S13.18,44,11.8,39.81a21.32,21.32,0,0,1-.43-14.13c1.75-6.06,5.17-9.74,10.37-12.58,3.61-2,7.44-2.89,13.58-2.3S44.2,13.68,45.78,15s5.4,5.51,6.66,9.19S54.09,32.2,53,35.56Zm-8.91,1.6a19.05,19.05,0,0,0,1-9.25,10.8,10.8,0,0,0,1.69-2.25,1,1,0,0,0-.37-1.07s.75-.93.47-1.53-4-.59-4-.59a7.88,7.88,0,0,0-1.47-2.16c-.81-.72-3.94-2.06-8-.47s-3.91,6.79-3.91,6.79a13.29,13.29,0,0,1-5.69-1.44c-2.59-1.44-4-3.41-4.75-3.41-.5,0-1.9,1.85-1.75,3.75a3.34,3.34,0,0,0,1.75,2.66A4.86,4.86,0,0,0,18.21,31a4.89,4.89,0,0,0,1.66,2.56s-.66.88.09,2.6a4.12,4.12,0,0,0,3,2s-.19.47-1.88,1.15a11.09,11.09,0,0,1-3,.69c-.84.22-.87,1.63,1.1,3.06S25,45.78,31.77,46,42.27,41.88,44.08,37.16ZM27.46,43.94c-5.22-1.1-7.19-2.56-7.19-2.56s3-.85,4.28-2.29-.43-2-.93-2.21-1.35-.41-1.75-1.13a3.13,3.13,0,0,1-.38-1.5s.78-.12.78-.75-1.34-.62-2-2,.47-2.59.75-2.91a.76.76,0,0,0-.15-1.15c-.44-.19-3.41-2.19-1.25-3.53.15-.1,2.28,3.12,6.25,4s5.21.47,5.37.28-.62-6,3.78-7,6,1.22,6.66,2.31,1.87.57,1.87.78-.4.88-.15.94,1.4,0,1.22.41-1.47,2-1.41,2.44.59,8.93-3,12.21A13.46,13.46,0,0,1,27.46,43.94ZM35,48.34c-.31,0-.69.47-.65.6a11.18,11.18,0,0,0,3.84,2.56c1.56.41.5-.16.56-.37S35.5,48.3,35,48.34Zm16-20c.44.09.25-.13.41-.47s-1.75-1.57-2.06-1.66c0,0-.47.69-.32,1A5.9,5.9,0,0,0,51,28.38ZM20.21,18c.53-.06,1.25-1.31,2.47-2.22a15.7,15.7,0,0,1,3.84-1.56c.28-.16-.12-.6-.31-.66a10,10,0,0,0-3.63,1.25c-1.87,1-3.59,2.47-3.37,2.69A1.23,1.23,0,0,0,20.21,18Zm18,29a1.59,1.59,0,0,0-1,.62A38.33,38.33,0,0,0,41,50.06a1.88,1.88,0,0,0,.94-.37A36.11,36.11,0,0,0,38.21,46.94Zm8.25-10.41c-.22,0-.41.56-.38.78a27.13,27.13,0,0,0,4,2.57c.21,0,.21-.5.21-.63A30.67,30.67,0,0,0,46.46,36.53Zm1.84-3c-.18.06-.4.63-.37.81a12.39,12.39,0,0,0,2.47,1.75c.18,0,.43-.43.47-.65A8.34,8.34,0,0,0,48.3,33.53ZM41.24,45.19c-.16,0-.5.47-.53.75s3.19,2.37,3.19,2.37.65-.34.68-.5A20.21,20.21,0,0,0,41.24,45.19ZM48.9,29.75c-.19.06-.41.28-.25.81s2.4,1.78,2.72,1.85.46-.35.5-.53A14.9,14.9,0,0,0,48.9,29.75ZM43.05,42.63c-.37,0-.53.59-.5.81A41.92,41.92,0,0,0,46.27,46a4.86,4.86,0,0,0,.56-.56A21.92,21.92,0,0,0,43.05,42.63Zm1.63-2.85c-.22,0-.47.41-.5.69s4.19,3,4.19,3,.25-.31.25-.47A40.36,40.36,0,0,0,44.68,39.78Z"/></svg>