<svg version="1.1" xmlns="http://www.w3.org/2000/svg" viewBox="0 0 351.93096318926007 149.79219513273222" width="351.93096318926007" height="149.79219513273222">
  <!-- svg-source:excalidraw -->
  
  <defs>
    <style class="style-fonts">
      @font-face {
        font-family: "Virgil";
        src: url("https://excalidraw.com/Virgil.woff2");
      }
      @font-face {
        font-family: "Cascadia";
        src: url("https://excalidraw.com/Cascadia.woff2");
      }
    </style>
  </defs>
  <rect x="0" y="0" width="351.93096318926007" height="149.79219513273222" fill="#ffffff"></rect><g stroke-opacity="0.7" fill-opacity="0.7" stroke-linecap="round" transform="translate(10 10) rotate(0 106.63353925575933 64.89609756636611)"><path d="M32 0 M32 0 C69.04 1.6, 103.96 0.7, 181.27 0 M32 0 C70.15 2.38, 109.09 1.96, 181.27 0 M181.27 0 C202.78 -0.5, 211.93 9.31, 213.27 32 M181.27 0 C202.1 2.11, 214.92 8.61, 213.27 32 M213.27 32 C214.14 45.65, 213.56 62.87, 213.27 97.79 M213.27 32 C214.54 49.15, 214.53 65.94, 213.27 97.79 M213.27 97.79 C214.15 117.41, 204.17 129.44, 181.27 129.79 M213.27 97.79 C211.3 119.23, 202.53 131.63, 181.27 129.79 M181.27 129.79 C140 131.86, 96.94 130.28, 32 129.79 M181.27 129.79 C147.96 131.06, 113.29 130.73, 32 129.79 M32 129.79 C11.79 129.67, -1.63 120.7, 0 97.79 M32 129.79 C12.43 127.69, 0.86 118.68, 0 97.79 M0 97.79 C0.45 81.04, 0.13 65.96, 0 32 M0 97.79 C0.48 73.85, 0.63 49.79, 0 32 M0 32 C0.74 8.67, 8.81 -1.42, 32 0 M0 32 C-0.85 11.87, 8.76 -1.84, 32 0" stroke="#087f5b" stroke-width="1" fill="none"></path></g><g stroke-opacity="0.7" fill-opacity="0.7" stroke-linecap="round" transform="translate(68.8662783214063 32.44796276507327) rotate(0 54.49063783236437 30.96058967747973)"><path d="M15.48 0 M15.48 0 C31.24 -0.83, 45.93 -0.2, 93.5 0 M15.48 0 C31.18 -0.21, 47.71 -1.01, 93.5 0 M93.5 0 C102.49 -1.35, 108.55 7, 108.98 15.48 M93.5 0 C105.48 -2.05, 107.15 3.92, 108.98 15.48 M108.98 15.48 C109.82 23.6, 108.23 29.29, 108.98 46.44 M108.98 15.48 C110.05 26.72, 109.68 35.82, 108.98 46.44 M108.98 46.44 C110.55 56.41, 102.11 62.01, 93.5 61.92 M108.98 46.44 C108.91 58.6, 103.39 63.68, 93.5 61.92 M93.5 61.92 C67.76 62.69, 41.24 62.96, 15.48 61.92 M93.5 61.92 C63.89 61.97, 36.25 62.03, 15.48 61.92 M15.48 61.92 C3.53 63.49, 1.53 54.93, 0 46.44 M15.48 61.92 C6.02 61.48, -1.18 57.44, 0 46.44 M0 46.44 C0.23 35.16, 1.22 20.77, 0 15.48 M0 46.44 C0.18 39.57, 0.36 31.42, 0 15.48 M0 15.48 C-1.86 3.74, 4.42 1.04, 15.48 0 M0 15.48 C-1.91 3.32, 4.09 2.07, 15.48 0" stroke="#364fc7" stroke-width="1" fill="none"></path></g><g stroke-opacity="0.7" fill-opacity="0.7" stroke-linecap="round" transform="translate(20.197210234203112 19.22206365172019) rotate(0 12.486171119902451 14.154892122395154)"><path d="M6.24 0 M6.24 0 C8.32 -0.71, 13.97 -0.45, 18.73 0 M6.24 0 C10.27 -0.39, 14.99 0.6, 18.73 0 M18.73 0 C24.33 -1.79, 23.38 1, 24.97 6.24 M18.73 0 C20.61 1.42, 24.01 2.83, 24.97 6.24 M24.97 6.24 C25.57 13.8, 25.69 20.03, 24.97 22.07 M24.97 6.24 C25.66 11.86, 24.37 17.8, 24.97 22.07 M24.97 22.07 C24.91 27.83, 22.52 29.84, 18.73 28.31 M24.97 22.07 C25.56 27.05, 24.84 27.89, 18.73 28.31 M18.73 28.31 C15.79 28.75, 11.37 27.46, 6.24 28.31 M18.73 28.31 C14.62 28.79, 12.01 27.73, 6.24 28.31 M6.24 28.31 C2.83 27.93, -1.03 26.82, 0 22.07 M6.24 28.31 C4.21 29.05, -0.45 26.6, 0 22.07 M0 22.07 C-1.27 16.68, 0.1 11.48, 0 6.24 M0 22.07 C-0.79 16.54, -0.35 12.55, 0 6.24 M0 6.24 C-1.66 0.48, 1.15 1.8, 6.24 0 M0 6.24 C0.52 2.81, 0.55 -1.56, 6.24 0" stroke="#087f5b" stroke-width="1" fill="none"></path></g><g stroke-opacity="0.7" fill-opacity="0.7" stroke-linecap="round" transform="translate(17.023226298302234 50.04504602034103) rotate(0 15.294711787062454 39.970180136856584)"><path d="M7.65 0 M7.65 0 C13.61 -0.48, 17.44 0.23, 22.94 0 M7.65 0 C11.69 0.81, 16.61 -0.58, 22.94 0 M22.94 0 C26.44 -1.08, 28.61 3.78, 30.59 7.65 M22.94 0 C27.08 0.75, 32.77 1.47, 30.59 7.65 M30.59 7.65 C31.86 33.09, 32.14 56.17, 30.59 72.29 M30.59 7.65 C30.24 21.56, 31.07 36.17, 30.59 72.29 M30.59 72.29 C30.21 78.92, 28.55 80.66, 22.94 79.94 M30.59 72.29 C32.54 76.97, 28.17 78.22, 22.94 79.94 M22.94 79.94 C18.4 78.92, 13.02 80.85, 7.65 79.94 M22.94 79.94 C19.03 79.36, 14.24 79.91, 7.65 79.94 M7.65 79.94 C1.52 80.53, 1.85 78.03, 0 72.29 M7.65 79.94 C2.1 80.32, 1.01 78.91, 0 72.29 M0 72.29 C0.73 57.65, 0.75 42.99, 0 7.65 M0 72.29 C0.23 59.88, -0.23 45.63, 0 7.65 M0 7.65 C-0.93 4.35, 3 0.63, 7.65 0 M0 7.65 C-1.53 0.99, 3.69 -2.2, 7.65 0" stroke="#087f5b" stroke-width="1" fill="none"></path></g><g stroke-opacity="0.6" fill-opacity="0.6" transform="translate(23.34504050362125 26.16050862262955) rotate(0 8.341666221618652 3.6905792996279843)"><text x="0" y="0" font-family="Virgil, Segoe UI Emoji" font-size="5.9049268794047896px" fill="#087f5b" text-anchor="start" style="white-space: pre;" direction="ltr" dominant-baseline="text-before-edge">Photo</text></g><g stroke-opacity="0.6" fill-opacity="0.6" transform="translate(22.727812750684507 57.38650767813124) rotate(0 7.941666603088379 3.4742563041866674)"><text x="0" y="0" font-family="Virgil, Segoe UI Emoji" font-size="5.558810086698673px" fill="#087f5b" text-anchor="start" style="white-space: pre;" direction="ltr" dominant-baseline="text-before-edge">About</text></g><g stroke-opacity="0.6" fill-opacity="0.6" transform="translate(24.475658788495366 69.62227710778097) rotate(0 6.958333492279053 2.1487146159745976)"><text x="0" y="0" font-family="Virgil, Segoe UI Emoji" font-size="3.437943385559337px" fill="#087f5b" text-anchor="start" style="white-space: pre;" direction="ltr" dominant-baseline="text-before-edge">My skills</text></g><g stroke-opacity="0.6" fill-opacity="0.6" transform="translate(22.92630513792642 78.79910418001873) rotate(0 9.591666221618652 2.7490000230189366)"><text x="0" y="0" font-family="Virgil, Segoe UI Emoji" font-size="4.398400036830319px" fill="#364fc7" text-anchor="start" style="white-space: pre;" direction="ltr" dominant-baseline="text-before-edge">My works</text></g><g stroke-opacity="0.6" fill-opacity="0.6" transform="translate(22.812785575856424 88.995578704727) rotate(0 10.050000190734863 3.1683620684454468)"><text x="0" y="0" font-family="Virgil, Segoe UI Emoji" font-size="5.069379309512704px" fill="#087f5b" text-anchor="start" style="white-space: pre;" direction="ltr" dominant-baseline="text-before-edge">Contact</text></g><g stroke-opacity="0.6" fill-opacity="0.6" transform="translate(20.286098146208133 101.63920711536514) rotate(0 12.366666793823242 1.9444770801839582)"><text x="0" y="0" font-family="Virgil, Segoe UI Emoji" font-size="3.111163328294351px" fill="#087f5b" text-anchor="start" style="white-space: pre;" direction="ltr" dominant-baseline="text-before-edge">Survivor’s note </text></g><g stroke-opacity="0.6" fill-opacity="0.6" transform="translate(113.32928810985845 38.86214118007899) rotate(0 11.875000000000057 3.4044264694428534)"><text x="0" y="0" font-family="Virgil, Segoe UI Emoji" font-size="5.447082351108609px" fill="#364fc7" text-anchor="start" style="white-space: pre;" direction="ltr" dominant-baseline="text-before-edge">My works</text></g><g stroke-opacity="0.6" fill-opacity="0.6" stroke-linecap="round" transform="translate(56.248128889710756 114.57286719518004) rotate(0 69.0538048832442 8.342931816748774)"><path d="M4.17 0 M4.17 0 C38.68 -0.3, 67.39 -0.8, 133.94 0 M4.17 0 C31.83 -1.34, 59.03 -0.42, 133.94 0 M133.94 0 C137.7 0.4, 137.95 2.15, 138.11 4.17 M133.94 0 C137.05 1.17, 135.85 3.38, 138.11 4.17 M138.11 4.17 C138.82 7.35, 137.64 9.28, 138.11 12.51 M138.11 4.17 C137.8 6.79, 138.25 9.48, 138.11 12.51 M138.11 12.51 C138.51 15.66, 138.13 17.45, 133.94 16.69 M138.11 12.51 C139.52 17.41, 134.89 17.97, 133.94 16.69 M133.94 16.69 C88.02 16.25, 44.61 13.6, 4.17 16.69 M133.94 16.69 C90.78 16.32, 47.54 16.11, 4.17 16.69 M4.17 16.69 C1.57 16.05, -0.48 16.67, 0 12.51 M4.17 16.69 C3.32 18.97, -0.96 13.68, 0 12.51 M0 12.51 C-0.6 9.72, -0.08 7.78, 0 4.17 M0 12.51 C-0.12 9.74, 0.13 7.46, 0 4.17 M0 4.17 C-1.25 2.21, 0.42 0.89, 4.17 0 M0 4.17 C-0.82 -0.59, 2.68 1.28, 4.17 0" stroke="#087f5b" stroke-width="1" fill="none"></path></g><g stroke-opacity="0.6" fill-opacity="0.6" transform="translate(106.5624253845657 117.65333432751788) rotate(0 10.983333587646484 4.373108972294574)"><text x="0" y="0" font-family="Virgil, Segoe UI Emoji" font-size="6.996974355671295px" fill="#087f5b" text-anchor="start" style="white-space: pre;" direction="ltr" dominant-baseline="text-before-edge">footer</text></g><g stroke-opacity="0.6" fill-opacity="0.6" stroke-linecap="round" transform="translate(250.987413453067 16.615502955597094) rotate(0 16.18203396163551 4.936666778280937)"><path d="M-0.09 2.57 C-0.09 2.57, -0.09 2.57, -0.09 2.57 M-0.09 2.57 C-0.09 2.57, -0.09 2.57, -0.09 2.57 M0.3 8.21 C2.12 5.82, 4.47 3.55, 5.55 2.18 M0.3 8.21 C1.99 6.43, 4.5 4.21, 5.55 2.18 M3.32 10.84 C6.01 8.43, 8.47 6.03, 10.54 2.54 M3.32 10.84 C6.08 8.23, 9.14 5.04, 10.54 2.54 M8.97 10.44 C11.56 8.59, 11.34 6.35, 16.18 2.14 M8.97 10.44 C10.77 8.88, 12.84 5.81, 16.18 2.14 M13.95 10.8 C16 9.73, 17.36 7.5, 21.17 2.5 M13.95 10.8 C15.3 9.22, 16.65 6.78, 21.17 2.5 M19.6 10.41 C22.4 7.34, 24.47 4.38, 26.81 2.11 M19.6 10.41 C21.78 8.21, 22.77 6.65, 26.81 2.11 M24.58 10.77 C26.59 6.94, 30.43 3.08, 32.46 1.71 M24.58 10.77 C27.67 7.01, 30.32 3.96, 32.46 1.71" stroke="#12b886" stroke-width="0.5" fill="none"></path><path d="M2.47 0 M2.47 0 C10.22 -0.12, 19.79 1.38, 29.9 0 M2.47 0 C10.33 -0.12, 20.46 0.45, 29.9 0 M29.9 0 C31.53 -0.71, 32.4 1.34, 32.36 2.47 M29.9 0 C30.87 1.3, 32.9 -0.52, 32.36 2.47 M32.36 2.47 C32.54 3.71, 32.03 4.38, 32.36 7.41 M32.36 2.47 C32.65 4.37, 32.54 6.06, 32.36 7.41 M32.36 7.41 C33.19 9.25, 31.95 10.02, 29.9 9.87 M32.36 7.41 C33.25 10.56, 32.19 10.86, 29.9 9.87 M29.9 9.87 C20.78 9.58, 10.94 8.93, 2.47 9.87 M29.9 9.87 C23.19 9.6, 16.23 10.14, 2.47 9.87 M2.47 9.87 C0.9 9.65, 0.12 10.08, 0 7.41 M2.47 9.87 C2.74 12.15, -1.37 6.94, 0 7.41 M0 7.41 C0.25 5.3, -0.16 4.45, 0 2.47 M0 7.41 C0.06 6.1, -0.2 4.41, 0 2.47 M0 2.47 C-0.23 1.92, 1.95 -0.37, 2.47 0 M0 2.47 C-1.9 1.54, 0.95 0.96, 2.47 0" stroke="#087f5b" stroke-width="1" fill="none"></path></g><g stroke-opacity="0.6" fill-opacity="0.6" transform="translate(298.33093338812057 15.125800343576657) rotate(0 20.308332443237305 4.901234737421419)"><text x="0" y="0" font-family="Virgil, Segoe UI Emoji" font-size="7.841975579874279px" fill="#087f5b" text-anchor="start" style="white-space: pre;" direction="ltr" dominant-baseline="text-before-edge">Must have</text></g><g stroke-opacity="0.6" fill-opacity="0.6" stroke-linecap="round" transform="translate(249.9570377394574 35.934167739200575) rotate(0 17.335625050058752 4.936666778280937)"><path d="M-0.09 2.57 C-0.09 2.57, -0.09 2.57, -0.09 2.57 M-0.09 2.57 C-0.09 2.57, -0.09 2.57, -0.09 2.57 M0.3 8.21 C0.85 6.26, 3.68 5.9, 5.55 2.18 M0.3 8.21 C2.53 6.04, 4.47 3.79, 5.55 2.18 M3.32 10.84 C5.18 8.41, 8.53 6.68, 10.54 2.54 M3.32 10.84 C5.91 8.26, 8.62 4.3, 10.54 2.54 M8.97 10.44 C11.85 8.01, 14.25 6.17, 16.18 2.14 M8.97 10.44 C11.03 8.96, 12.47 7.11, 16.18 2.14 M13.95 10.8 C17.13 7.63, 19.27 4.48, 21.17 2.5 M13.95 10.8 C15.69 9.04, 17.15 6.91, 21.17 2.5 M19.6 10.41 C22.54 9.15, 23.14 5.58, 26.81 2.11 M19.6 10.41 C22.17 7.56, 23.64 5.55, 26.81 2.11 M24.58 10.77 C27.2 8.77, 27.73 5.73, 33.11 0.96 M24.58 10.77 C27.48 6.54, 30.93 2.83, 33.11 0.96 M30.23 10.38 C32.47 6.79, 34.82 5.52, 36.79 2.83 M30.23 10.38 C32.47 7.95, 34.56 5.53, 36.79 2.83" stroke="#4c6ef5" stroke-width="0.5" fill="none"></path><path d="M2.47 0 M2.47 0 C10.35 -0.24, 22.58 1.32, 32.2 0 M2.47 0 C10.46 0.86, 17.77 0.79, 32.2 0 M32.2 0 C34.96 1.97, 35.49 1.02, 34.67 2.47 M32.2 0 C34.31 0.17, 35.55 2.33, 34.67 2.47 M34.67 2.47 C34.58 3.73, 34.58 5.69, 34.67 7.41 M34.67 2.47 C34.88 3.34, 34.59 4.62, 34.67 7.41 M34.67 7.41 C33.21 10.05, 33.93 9.65, 32.2 9.87 M34.67 7.41 C34.81 10.24, 35.76 12.15, 32.2 9.87 M32.2 9.87 C26.34 10.71, 19.07 8.4, 2.47 9.87 M32.2 9.87 C23.34 10.6, 15.96 10.45, 2.47 9.87 M2.47 9.87 C-1.1 9.08, -0.23 10.15, 0 7.41 M2.47 9.87 C2.12 9.45, -1.9 9.77, 0 7.41 M0 7.41 C0.44 5.72, -0.03 4.81, 0 2.47 M0 7.41 C0.01 5.83, -0.1 4.43, 0 2.47 M0 2.47 C-0.12 1.49, 0.55 1.87, 2.47 0 M0 2.47 C1.48 -0.44, 2.09 1.24, 2.47 0" stroke="#364fc7" stroke-width="1" fill="none"></path></g><g stroke-opacity="0.6" fill-opacity="0.6" transform="translate(298.4642960139671 36.073885976343036) rotate(0 21.733333587646484 4.750667298159442)"><text x="0" y="0" font-family="Virgil, Segoe UI Emoji" font-size="7.601067677055071px" fill="#364fc7" text-anchor="start" style="white-space: pre;" direction="ltr" dominant-baseline="text-before-edge">should have</text></g><g stroke-opacity="0.6" fill-opacity="0.6" transform="translate(300.023527352398 55.62025765298472) rotate(0 20.308332443237305 4.894766234232748)"><text x="0" y="0" font-family="Virgil, Segoe UI Emoji" font-size="7.831625974772397px" fill="#c92a2a" text-anchor="start" style="white-space: pre;" direction="ltr" dominant-baseline="text-before-edge">could have</text></g><g stroke-opacity="0.6" fill-opacity="0.6" stroke-linecap="round" transform="translate(250.22264204626606 55.62025765298472) rotate(0 17.070922025039977 4.749053495687747)"><path d="M-0.14 2.53 C-0.14 2.53, -0.14 2.53, -0.14 2.53 M-0.14 2.53 C-0.14 2.53, -0.14 2.53, -0.14 2.53 M0.91 7.42 C2.63 5.89, 4.19 4.36, 5.51 2.14 M0.91 7.42 C2.67 5.76, 4.62 3.73, 5.51 2.14 M3.28 10.8 C5.87 8.94, 5.65 6.71, 10.49 2.5 M3.28 10.8 C5.08 9.23, 7.15 6.16, 10.49 2.5 M8.92 10.4 C10.97 9.33, 12.33 7.1, 16.14 2.1 M8.92 10.4 C10.27 8.82, 11.62 6.38, 16.14 2.1 M13.91 10.76 C16.71 7.7, 18.78 4.74, 21.12 2.46 M13.91 10.76 C16.09 8.56, 17.08 7.01, 21.12 2.46 M19.55 10.37 C21.22 7.18, 24.42 3.96, 26.11 2.82 M19.55 10.37 C22.12 7.24, 24.33 4.69, 26.11 2.82 M24.54 10.73 C26.42 7.21, 29.41 4.78, 33.07 0.92 M24.54 10.73 C26.63 7.54, 30.28 4.82, 33.07 0.92 M30.18 10.34 C32.2 8.04, 34.25 6.48, 36.08 3.54 M30.18 10.34 C31.55 8.94, 33.33 6.84, 36.08 3.54" stroke="#fa5252" stroke-width="0.5" fill="none"></path><path d="M2.37 0 M2.37 0 C12.79 1.75, 21.08 0.87, 31.77 0 M2.37 0 C14.29 0.04, 26.19 0.63, 31.77 0 M31.77 0 C33.92 0.86, 34.46 0.34, 34.14 2.37 M31.77 0 C31.69 -0.52, 34.03 -1.08, 34.14 2.37 M34.14 2.37 C33.71 3.51, 34.09 4.52, 34.14 7.12 M34.14 2.37 C34.16 4.16, 34.34 5.93, 34.14 7.12 M34.14 7.12 C32.95 6.87, 34.26 10.79, 31.77 9.5 M34.14 7.12 C34.94 10.04, 31.5 8.92, 31.77 9.5 M31.77 9.5 C21.74 9.52, 9.91 7.38, 2.37 9.5 M31.77 9.5 C24.69 9.47, 15.65 9.97, 2.37 9.5 M2.37 9.5 C0.9 10.34, -0.26 10.56, 0 7.12 M2.37 9.5 C-0.03 9.44, 1.94 8.65, 0 7.12 M0 7.12 C-0.23 5.73, -0.1 4.79, 0 2.37 M0 7.12 C0.16 5.41, 0.14 4.09, 0 2.37 M0 2.37 C1.57 2.05, -0.13 1.75, 2.37 0 M0 2.37 C0.16 1, 2.55 -0.72, 2.37 0" stroke="#c92a2a" stroke-width="1" fill="none"></path></g></svg>